<?xml version="1.0" encoding="UTF-8"?><svg id="Layer_2" xmlns="http://www.w3.org/2000/svg" viewBox="0 0 50 50"><defs><style>.cls-1{fill:#010101;}.cls-1,.cls-2{stroke-width:0px;}.cls-2{fill:none;}</style></defs><g id="Layer_1-2"><path class="cls-1" d="M8.02,4.25c-2.08,0-3.77,1.69-3.77,3.77v33.95c0,2.08,1.69,3.77,3.77,3.77h33.95c2.08,0,3.77-1.69,3.77-3.77V8.02c0-2.08-1.69-3.77-3.77-3.77H8.02ZM16.35,15.81h3.74l6.61,18.61h-3.57l-1.57-4.76h-6.85l-1.6,4.76h-3.36l6.6-18.61ZM18.04,19.36l-2.55,7.67h5.3l-2.53-7.67h-.22ZM34.72,20.03c4.02,0,6.44,2.67,6.44,7.12v1.03h-9.85v.17c.08,2.35,1.43,3.82,3.53,3.82,1.58,0,2.68-.58,3.15-1.62h3.03c-.6,2.57-2.94,4.17-6.27,4.17-4.15,0-6.65-2.75-6.65-7.29s2.54-7.39,6.63-7.39ZM34.71,22.56c-1.91,0-3.25,1.37-3.39,3.43h6.64c-.07-2.09-1.33-3.43-3.25-3.43Z"/><rect class="cls-2" width="50" height="50"/></g></svg>