<?xml version="1.0" encoding="UTF-8"?><svg id="Layer_2" xmlns="http://www.w3.org/2000/svg" viewBox="0 0 50 50"><defs><style>.cls-1{fill:#010101;}.cls-1,.cls-2{stroke-width:0px;}.cls-2{fill:none;}</style></defs><g id="Layer_1-2"><path class="cls-1" d="M24.93,2c-.11,0-.22.02-.33.05L3.67,9.34c-.44.15-.72.6-.66,1.06l3.31,27.12c.04.32.23.6.51.76l17.65,9.59c.15.08.31.12.48.12s.33-.04.48-.12l17.74-9.72c.28-.15.47-.44.51-.76l3.31-27.12c.06-.47-.22-.92-.67-1.07L25.25,2.05c-.1-.04-.21-.05-.32-.05ZM25,7l13,28h-4.44l-2.78-5.99h-11.56l-2.78,5.99h-4.44L25,7ZM25,16.5l-3.92,8.5h7.84l-3.92-8.5Z"/><rect class="cls-2" width="50" height="50"/></g></svg>