<svg viewBox="0 0 40 40" fill="none" xmlns="http://www.w3.org/2000/svg">
<path fill-rule="evenodd" clip-rule="evenodd" d="M5 0C2.23858 0 0 2.23858 0 5V35C0 37.7614 2.23858 40 5 40H35C37.7614 40 40 37.7614 40 35V5C40 2.23858 37.7614 0 35 0H5ZM23.5 14.1668H31.6667V11.8335H23.5V14.1668ZM27.7292 29.3335C31.3132 29.3335 33.1647 27.3467 33.6803 25.8335H29.9843C28.6952 27.3303 24.7833 27.2125 24.6317 23.4663H33.9965C34.0128 22.3557 33.9767 21.56 33.8857 20.9697C33.4062 17.885 31.2105 15.806 27.6148 15.806C23.9503 15.806 21.2378 18.151 21.2378 22.7127C21.2378 27.3163 24.1428 29.3335 27.7292 29.3335ZM30.5058 21.1668H24.7133C24.9595 19.474 25.9057 18.578 27.616 18.578C29.1805 18.578 30.3833 19.362 30.5058 21.1668ZM6 29.3195H13.5437C21.4583 29.3195 21.323 21.385 17.2852 19.915C20.6218 18.2093 20.5005 11.9525 14.1118 11.858H6V29.3195ZM13.6813 18.8335H9.5V15.3335H13.3173C17.0717 15.3335 16.6073 18.8335 13.6813 18.8335ZM9.5 22.3335H13.4562C16.7438 22.3335 16.962 25.8522 13.3978 25.8522H9.5V22.3335Z"/>
</svg>
