<?xml version="1.0" encoding="UTF-8"?><svg id="Layer_2" xmlns="http://www.w3.org/2000/svg" viewBox="0 0 50 50"><defs><style>.cls-1{fill:none;}.cls-1,.cls-2{stroke-width:0px;}.cls-2{fill:#363633;}</style></defs><g id="Layer_1-2"><path class="cls-2" d="M25.83,4.8c-.2-.02-.41-.02-.61,0-.83.09-1.57.5-2.09,1.14-1.08,1.34-.86,3.3.48,4.37l3.42,2.75H9.43c-1.72,0-3.11,1.4-3.11,3.11s1.4,3.11,3.11,3.11h7.71L2.37,31.23c-.67.54-1.09,1.31-1.18,2.17-.09.86.16,1.7.7,2.37.54.67,1.31,1.09,2.17,1.18.86.09,1.7-.16,2.37-.7l7.18-5.8c.6,8.23,8.26,14.77,17.59,14.77s17.63-7.09,17.63-15.81c0-5.39-3.02-10.35-8.07-13.28l-13.25-10.65c-.49-.39-1.07-.62-1.67-.67ZM31.2,20.33c5.15,0,9.33,3.49,9.33,7.78s-4.19,7.78-9.33,7.78-9.33-3.49-9.33-7.78,4.19-7.78,9.33-7.78ZM31.2,22.4c-1.65,0-3.23.55-4.4,1.52-1.17.97-1.82,2.29-1.82,3.67s.66,2.69,1.82,3.67c1.17.97,2.75,1.52,4.4,1.52s3.23-.55,4.4-1.52c1.17-.97,1.82-2.29,1.82-3.67s-.66-2.69-1.82-3.67c-1.17-.97-2.75-1.52-4.4-1.52Z"/><rect class="cls-1" width="50" height="50"/></g></svg>