<svg width="294" height="294" viewBox="0 0 294 294" fill="none" xmlns="http://www.w3.org/2000/svg">
<circle cx="3" cy="291" r="3" transform="rotate(-90 3 291)" fill="#D9D7D0"/>
<circle cx="3" cy="273" r="3" transform="rotate(-90 3 273)" fill="#0E0E0E"/>
<circle cx="3" cy="255" r="3" transform="rotate(-90 3 255)" fill="#FF4BC2"/>
<circle cx="3" cy="237" r="3" transform="rotate(-90 3 237)" fill="#D9D7D0"/>
<circle cx="3" cy="219" r="3" transform="rotate(-90 3 219)" fill="#D9D7D0"/>
<circle cx="3" cy="201" r="3" transform="rotate(-90 3 201)" fill="#38DDD3"/>
<circle cx="3" cy="183" r="3" transform="rotate(-90 3 183)" fill="#D9D7D0"/>
<circle cx="3" cy="165" r="3" transform="rotate(-90 3 165)" fill="#D9D7D0"/>
<circle cx="3" cy="147" r="3" transform="rotate(-90 3 147)" fill="#D9D7D0"/>
<circle cx="3" cy="129" r="3" transform="rotate(-90 3 129)" fill="#FF4BC2"/>
<circle cx="3" cy="111" r="3" transform="rotate(-90 3 111)" fill="#D9D7D0"/>
<circle cx="3" cy="93" r="3" transform="rotate(-90 3 93)" fill="#FFC42B"/>
<circle cx="3" cy="75" r="3" transform="rotate(-90 3 75)" fill="#D9D7D0"/>
<circle cx="3" cy="57" r="3" transform="rotate(-90 3 57)" fill="#0E0E0E"/>
<circle cx="3" cy="39" r="3" transform="rotate(-90 3 39)" fill="#FFC42B"/>
<circle cx="3" cy="21" r="3" transform="rotate(-90 3 21)" fill="#D9D7D0"/>
<circle cx="3" cy="3" r="3" transform="rotate(-90 3 3)" fill="#D9D7D0"/>
<circle cx="21" cy="291" r="3" transform="rotate(-90 21 291)" fill="#38DDD3"/>
<circle cx="21" cy="273" r="3" transform="rotate(-90 21 273)" fill="#FFC42B"/>
<circle cx="21" cy="255" r="3" transform="rotate(-90 21 255)" fill="#D9D7D0"/>
<circle cx="21" cy="237" r="3" transform="rotate(-90 21 237)" fill="#D9D7D0"/>
<circle cx="21" cy="219" r="3" transform="rotate(-90 21 219)" fill="#D9D7D0"/>
<circle cx="21" cy="201" r="3" transform="rotate(-90 21 201)" fill="#D9D7D0"/>
<circle cx="21" cy="183" r="3" transform="rotate(-90 21 183)" fill="#FFC42B"/>
<circle cx="21" cy="165" r="3" transform="rotate(-90 21 165)" fill="#D9D7D0"/>
<circle cx="21" cy="147" r="3" transform="rotate(-90 21 147)" fill="#D9D7D0"/>
<circle cx="21" cy="129" r="3" transform="rotate(-90 21 129)" fill="#D9D7D0"/>
<circle cx="21" cy="111" r="3" transform="rotate(-90 21 111)" fill="#D9D7D0"/>
<circle cx="21" cy="93" r="3" transform="rotate(-90 21 93)" fill="#D9D7D0"/>
<circle cx="21" cy="75" r="3" transform="rotate(-90 21 75)" fill="#D9D7D0"/>
<circle cx="21" cy="57" r="3" transform="rotate(-90 21 57)" fill="#D9D7D0"/>
<circle cx="21" cy="39" r="3" transform="rotate(-90 21 39)" fill="#D9D7D0"/>
<circle cx="21" cy="21" r="3" transform="rotate(-90 21 21)" fill="#D9D7D0"/>
<circle cx="21" cy="3" r="3" transform="rotate(-90 21 3)" fill="#D9D7D0"/>
<circle cx="39" cy="291" r="3" transform="rotate(-90 39 291)" fill="#D9D7D0"/>
<circle cx="39" cy="273" r="3" transform="rotate(-90 39 273)" fill="#D9D7D0"/>
<circle cx="39" cy="255" r="3" transform="rotate(-90 39 255)" fill="#D9D7D0"/>
<circle cx="39" cy="237" r="3" transform="rotate(-90 39 237)" fill="#D9D7D0"/>
<circle cx="39" cy="219" r="3" transform="rotate(-90 39 219)" fill="#D9D7D0"/>
<circle cx="39" cy="201" r="3" transform="rotate(-90 39 201)" fill="#1E48DC"/>
<circle cx="39" cy="183" r="3" transform="rotate(-90 39 183)" fill="#D9D7D0"/>
<circle cx="39" cy="165" r="3" transform="rotate(-90 39 165)" fill="#D9D7D0"/>
<circle cx="39" cy="147" r="3" transform="rotate(-90 39 147)" fill="#1E48DC"/>
<circle cx="39" cy="129" r="3" transform="rotate(-90 39 129)" fill="#DD3838"/>
<circle cx="39" cy="111" r="3" transform="rotate(-90 39 111)" fill="#0E0E0E"/>
<circle cx="39" cy="93" r="3" transform="rotate(-90 39 93)" fill="#D9D7D0"/>
<circle cx="39" cy="75" r="3" transform="rotate(-90 39 75)" fill="#38DDD3"/>
<circle cx="39" cy="57" r="3" transform="rotate(-90 39 57)" fill="#D9D7D0"/>
<circle cx="39" cy="39" r="3" transform="rotate(-90 39 39)" fill="#D9D7D0"/>
<circle cx="39" cy="21" r="3" transform="rotate(-90 39 21)" fill="#D9D7D0"/>
<circle cx="39" cy="3" r="3" transform="rotate(-90 39 3)" fill="#D9D7D0"/>
<circle cx="57" cy="291" r="3" transform="rotate(-90 57 291)" fill="#D9D7D0"/>
<circle cx="57" cy="273" r="3" transform="rotate(-90 57 273)" fill="#D9D7D0"/>
<circle cx="57" cy="255" r="3" transform="rotate(-90 57 255)" fill="#D9D7D0"/>
<circle cx="57" cy="237" r="3" transform="rotate(-90 57 237)" fill="#D9D7D0"/>
<circle cx="57" cy="219" r="3" transform="rotate(-90 57 219)" fill="#D9D7D0"/>
<circle cx="57" cy="201" r="3" transform="rotate(-90 57 201)" fill="#D9D7D0"/>
<circle cx="57" cy="183" r="3" transform="rotate(-90 57 183)" fill="#D9D7D0"/>
<circle cx="57" cy="165" r="3" transform="rotate(-90 57 165)" fill="#D9D7D0"/>
<circle cx="57" cy="147" r="3" transform="rotate(-90 57 147)" fill="#D9D7D0"/>
<circle cx="57" cy="129" r="3" transform="rotate(-90 57 129)" fill="#D9D7D0"/>
<circle cx="57" cy="111" r="3" transform="rotate(-90 57 111)" fill="#D9D7D0"/>
<circle cx="57" cy="93" r="3" transform="rotate(-90 57 93)" fill="#D9D7D0"/>
<circle cx="57" cy="75" r="3" transform="rotate(-90 57 75)" fill="#D9D7D0"/>
<circle cx="57" cy="57" r="3" transform="rotate(-90 57 57)" fill="#D9D7D0"/>
<circle cx="57" cy="39" r="3" transform="rotate(-90 57 39)" fill="#D9D7D0"/>
<circle cx="57" cy="21" r="3" transform="rotate(-90 57 21)" fill="#1E48DC"/>
<circle cx="57" cy="3" r="3" transform="rotate(-90 57 3)" fill="#D9D7D0"/>
<circle cx="75" cy="291" r="3" transform="rotate(-90 75 291)" fill="#FF4BC2"/>
<circle cx="75" cy="273" r="3" transform="rotate(-90 75 273)" fill="#D9D7D0"/>
<circle cx="75" cy="255" r="3" transform="rotate(-90 75 255)" fill="#D9D7D0"/>
<circle cx="75" cy="237" r="3" transform="rotate(-90 75 237)" fill="#D9D7D0"/>
<circle cx="75" cy="219" r="3" transform="rotate(-90 75 219)" fill="#FFC42B"/>
<circle cx="75" cy="201" r="3" transform="rotate(-90 75 201)" fill="#D9D7D0"/>
<circle cx="75" cy="183" r="3" transform="rotate(-90 75 183)" fill="#38DDD3"/>
<circle cx="75" cy="165" r="3" transform="rotate(-90 75 165)" fill="#D9D7D0"/>
<circle cx="75" cy="147" r="3" transform="rotate(-90 75 147)" fill="#38DDD3"/>
<circle cx="75" cy="129" r="3" transform="rotate(-90 75 129)" fill="#D9D7D0"/>
<circle cx="75" cy="111" r="3" transform="rotate(-90 75 111)" fill="#FF4BC2"/>
<circle cx="75" cy="93" r="3" transform="rotate(-90 75 93)" fill="#D9D7D0"/>
<circle cx="75" cy="75" r="3" transform="rotate(-90 75 75)" fill="#D9D7D0"/>
<circle cx="75" cy="57" r="3" transform="rotate(-90 75 57)" fill="#FFC42B"/>
<circle cx="75" cy="39" r="3" transform="rotate(-90 75 39)" fill="#D9D7D0"/>
<circle cx="75" cy="21" r="3" transform="rotate(-90 75 21)" fill="#DD3838"/>
<circle cx="75" cy="3" r="3" transform="rotate(-90 75 3)" fill="#D9D7D0"/>
<circle cx="93" cy="291" r="3" transform="rotate(-90 93 291)" fill="#D9D7D0"/>
<circle cx="93" cy="273" r="3" transform="rotate(-90 93 273)" fill="#D9D7D0"/>
<circle cx="93" cy="255" r="3" transform="rotate(-90 93 255)" fill="#0E0E0E"/>
<circle cx="93" cy="237" r="3" transform="rotate(-90 93 237)" fill="#D9D7D0"/>
<circle cx="93" cy="219" r="3" transform="rotate(-90 93 219)" fill="#D9D7D0"/>
<circle cx="93" cy="201" r="3" transform="rotate(-90 93 201)" fill="#D9D7D0"/>
<circle cx="93" cy="183" r="3" transform="rotate(-90 93 183)" fill="#D9D7D0"/>
<circle cx="93" cy="165" r="3" transform="rotate(-90 93 165)" fill="#D9D7D0"/>
<circle cx="93" cy="147" r="3" transform="rotate(-90 93 147)" fill="#DD3838"/>
<circle cx="93" cy="129" r="3" transform="rotate(-90 93 129)" fill="#D9D7D0"/>
<circle cx="93" cy="111" r="3" transform="rotate(-90 93 111)" fill="#D9D7D0"/>
<circle cx="93" cy="93" r="3" transform="rotate(-90 93 93)" fill="#D9D7D0"/>
<circle cx="93" cy="75" r="3" transform="rotate(-90 93 75)" fill="#FFC42B"/>
<circle cx="93" cy="57" r="3" transform="rotate(-90 93 57)" fill="#1E48DC"/>
<circle cx="93" cy="39" r="3" transform="rotate(-90 93 39)" fill="#D9D7D0"/>
<circle cx="93" cy="21" r="3" transform="rotate(-90 93 21)" fill="#D9D7D0"/>
<circle cx="93" cy="3" r="3" transform="rotate(-90 93 3)" fill="#D9D7D0"/>
<circle cx="111" cy="291" r="3" transform="rotate(-90 111 291)" fill="#D9D7D0"/>
<circle cx="111" cy="273" r="3" transform="rotate(-90 111 273)" fill="#DD3838"/>
<circle cx="111" cy="255" r="3" transform="rotate(-90 111 255)" fill="#D9D7D0"/>
<circle cx="111" cy="237" r="3" transform="rotate(-90 111 237)" fill="#D9D7D0"/>
<circle cx="111" cy="219" r="3" transform="rotate(-90 111 219)" fill="#D9D7D0"/>
<circle cx="111" cy="201" r="3" transform="rotate(-90 111 201)" fill="#D9D7D0"/>
<circle cx="111" cy="183" r="3" transform="rotate(-90 111 183)" fill="#D9D7D0"/>
<circle cx="111" cy="165" r="3" transform="rotate(-90 111 165)" fill="#D9D7D0"/>
<circle cx="111" cy="147" r="3" transform="rotate(-90 111 147)" fill="#D9D7D0"/>
<circle cx="111" cy="129" r="3" transform="rotate(-90 111 129)" fill="#D9D7D0"/>
<circle cx="111" cy="111" r="3" transform="rotate(-90 111 111)" fill="#D9D7D0"/>
<circle cx="111" cy="93" r="3" transform="rotate(-90 111 93)" fill="#FF4BC2"/>
<circle cx="111" cy="75" r="3" transform="rotate(-90 111 75)" fill="#D9D7D0"/>
<circle cx="111" cy="57" r="3" transform="rotate(-90 111 57)" fill="#D9D7D0"/>
<circle cx="111" cy="39" r="3" transform="rotate(-90 111 39)" fill="#DD3838"/>
<circle cx="111" cy="21" r="3" transform="rotate(-90 111 21)" fill="#38DDD3"/>
<circle cx="111" cy="3" r="3" transform="rotate(-90 111 3)" fill="#FF4BC2"/>
<circle cx="129" cy="291" r="3" transform="rotate(-90 129 291)" fill="#1E48DC"/>
<circle cx="129" cy="273" r="3" transform="rotate(-90 129 273)" fill="#D9D7D0"/>
<circle cx="129" cy="255" r="3" transform="rotate(-90 129 255)" fill="#D9D7D0"/>
<circle cx="129" cy="237" r="3" transform="rotate(-90 129 237)" fill="#0E0E0E"/>
<circle cx="129" cy="219" r="3" transform="rotate(-90 129 219)" fill="#D9D7D0"/>
<circle cx="129" cy="201" r="3" transform="rotate(-90 129 201)" fill="#D9D7D0"/>
<circle cx="129" cy="183" r="3" transform="rotate(-90 129 183)" fill="#D9D7D0"/>
<circle cx="129" cy="165" r="3" transform="rotate(-90 129 165)" fill="#FF4BC2"/>
<circle cx="129" cy="147" r="3" transform="rotate(-90 129 147)" fill="#FFC42B"/>
<circle cx="129" cy="129" r="3" transform="rotate(-90 129 129)" fill="#D9D7D0"/>
<circle cx="129" cy="111" r="3" transform="rotate(-90 129 111)" fill="#D9D7D0"/>
<circle cx="129" cy="93" r="3" transform="rotate(-90 129 93)" fill="#D9D7D0"/>
<circle cx="129" cy="75" r="3" transform="rotate(-90 129 75)" fill="#D9D7D0"/>
<circle cx="129" cy="57" r="3" transform="rotate(-90 129 57)" fill="#D9D7D0"/>
<circle cx="129" cy="39" r="3" transform="rotate(-90 129 39)" fill="#D9D7D0"/>
<circle cx="129" cy="21" r="3" transform="rotate(-90 129 21)" fill="#D9D7D0"/>
<circle cx="129" cy="3" r="3" transform="rotate(-90 129 3)" fill="#D9D7D0"/>
<circle cx="147" cy="291" r="3" transform="rotate(-90 147 291)" fill="#D9D7D0"/>
<circle cx="147" cy="273" r="3" transform="rotate(-90 147 273)" fill="#38DDD3"/>
<circle cx="147" cy="255" r="3" transform="rotate(-90 147 255)" fill="#D9D7D0"/>
<circle cx="147" cy="237" r="3" transform="rotate(-90 147 237)" fill="#1E48DC"/>
<circle cx="147" cy="219" r="3" transform="rotate(-90 147 219)" fill="#D9D7D0"/>
<circle cx="147" cy="201" r="3" transform="rotate(-90 147 201)" fill="#0E0E0E"/>
<circle cx="147" cy="183" r="3" transform="rotate(-90 147 183)" fill="#D9D7D0"/>
<circle cx="147" cy="165" r="3" transform="rotate(-90 147 165)" fill="#1E48DC"/>
<circle cx="147" cy="147" r="3" transform="rotate(-90 147 147)" fill="#D9D7D0"/>
<circle cx="147" cy="129" r="3" transform="rotate(-90 147 129)" fill="#D9D7D0"/>
<circle cx="147" cy="111" r="3" transform="rotate(-90 147 111)" fill="#D9D7D0"/>
<circle cx="147" cy="93" r="3" transform="rotate(-90 147 93)" fill="#1E48DC"/>
<circle cx="147" cy="75" r="3" transform="rotate(-90 147 75)" fill="#DD3838"/>
<circle cx="147" cy="57" r="3" transform="rotate(-90 147 57)" fill="#D9D7D0"/>
<circle cx="147" cy="39" r="3" transform="rotate(-90 147 39)" fill="#38DDD3"/>
<circle cx="147" cy="21" r="3" transform="rotate(-90 147 21)" fill="#FFC42B"/>
<circle cx="147" cy="3" r="3" transform="rotate(-90 147 3)" fill="#D9D7D0"/>
<circle cx="165" cy="291" r="3" transform="rotate(-90 165 291)" fill="#D9D7D0"/>
<circle cx="165" cy="273" r="3" transform="rotate(-90 165 273)" fill="#FF4BC2"/>
<circle cx="165" cy="255" r="3" transform="rotate(-90 165 255)" fill="#D9D7D0"/>
<circle cx="165" cy="237" r="3" transform="rotate(-90 165 237)" fill="#D9D7D0"/>
<circle cx="165" cy="219" r="3" transform="rotate(-90 165 219)" fill="#D9D7D0"/>
<circle cx="165" cy="201" r="3" transform="rotate(-90 165 201)" fill="#D9D7D0"/>
<circle cx="165" cy="183" r="3" transform="rotate(-90 165 183)" fill="#D9D7D0"/>
<circle cx="165" cy="165" r="3" transform="rotate(-90 165 165)" fill="#D9D7D0"/>
<circle cx="165" cy="147" r="3" transform="rotate(-90 165 147)" fill="#D9D7D0"/>
<circle cx="165" cy="129" r="3" transform="rotate(-90 165 129)" fill="#FFC42B"/>
<circle cx="165" cy="111" r="3" transform="rotate(-90 165 111)" fill="#D9D7D0"/>
<circle cx="165" cy="93" r="3" transform="rotate(-90 165 93)" fill="#D9D7D0"/>
<circle cx="165" cy="75" r="3" transform="rotate(-90 165 75)" fill="#D9D7D0"/>
<circle cx="165" cy="57" r="3" transform="rotate(-90 165 57)" fill="#D9D7D0"/>
<circle cx="165" cy="39" r="3" transform="rotate(-90 165 39)" fill="#D9D7D0"/>
<circle cx="165" cy="21" r="3" transform="rotate(-90 165 21)" fill="#D9D7D0"/>
<circle cx="165" cy="3" r="3" transform="rotate(-90 165 3)" fill="#D9D7D0"/>
<circle cx="183" cy="291" r="3" transform="rotate(-90 183 291)" fill="#0E0E0E"/>
<circle cx="183" cy="273" r="3" transform="rotate(-90 183 273)" fill="#D9D7D0"/>
<circle cx="183" cy="255" r="3" transform="rotate(-90 183 255)" fill="#D9D7D0"/>
<circle cx="183" cy="237" r="3" transform="rotate(-90 183 237)" fill="#FF4BC2"/>
<circle cx="183" cy="219" r="3" transform="rotate(-90 183 219)" fill="#D9D7D0"/>
<circle cx="183" cy="201" r="3" transform="rotate(-90 183 201)" fill="#D9D7D0"/>
<circle cx="183" cy="183" r="3" transform="rotate(-90 183 183)" fill="#1E48DC"/>
<circle cx="183" cy="165" r="3" transform="rotate(-90 183 165)" fill="#D9D7D0"/>
<circle cx="183" cy="147" r="3" transform="rotate(-90 183 147)" fill="#0E0E0E"/>
<circle cx="183" cy="129" r="3" transform="rotate(-90 183 129)" fill="#1E48DC"/>
<circle cx="183" cy="111" r="3" transform="rotate(-90 183 111)" fill="#D9D7D0"/>
<circle cx="183" cy="93" r="3" transform="rotate(-90 183 93)" fill="#D9D7D0"/>
<circle cx="183" cy="75" r="3" transform="rotate(-90 183 75)" fill="#D9D7D0"/>
<circle cx="183" cy="57" r="3" transform="rotate(-90 183 57)" fill="#D9D7D0"/>
<circle cx="183" cy="39" r="3" transform="rotate(-90 183 39)" fill="#FF4BC2"/>
<circle cx="183" cy="21" r="3" transform="rotate(-90 183 21)" fill="#D9D7D0"/>
<circle cx="183" cy="3" r="3" transform="rotate(-90 183 3)" fill="#D9D7D0"/>
<circle cx="201" cy="291" r="3" transform="rotate(-90 201 291)" fill="#D9D7D0"/>
<circle cx="201" cy="273" r="3" transform="rotate(-90 201 273)" fill="#D9D7D0"/>
<circle cx="201" cy="255" r="3" transform="rotate(-90 201 255)" fill="#FFC42B"/>
<circle cx="201" cy="237" r="3" transform="rotate(-90 201 237)" fill="#D9D7D0"/>
<circle cx="201" cy="219" r="3" transform="rotate(-90 201 219)" fill="#D9D7D0"/>
<circle cx="201" cy="201" r="3" transform="rotate(-90 201 201)" fill="#D9D7D0"/>
<circle cx="201" cy="183" r="3" transform="rotate(-90 201 183)" fill="#D9D7D0"/>
<circle cx="201" cy="165" r="3" transform="rotate(-90 201 165)" fill="#D9D7D0"/>
<circle cx="201" cy="147" r="3" transform="rotate(-90 201 147)" fill="#D9D7D0"/>
<circle cx="201" cy="129" r="3" transform="rotate(-90 201 129)" fill="#D9D7D0"/>
<circle cx="201" cy="111" r="3" transform="rotate(-90 201 111)" fill="#D9D7D0"/>
<circle cx="201" cy="93" r="3" transform="rotate(-90 201 93)" fill="#D9D7D0"/>
<circle cx="201" cy="75" r="3" transform="rotate(-90 201 75)" fill="#0E0E0E"/>
<circle cx="201" cy="57" r="3" transform="rotate(-90 201 57)" fill="#D9D7D0"/>
<circle cx="201" cy="39" r="3" transform="rotate(-90 201 39)" fill="#D9D7D0"/>
<circle cx="201" cy="21" r="3" transform="rotate(-90 201 21)" fill="#D9D7D0"/>
<circle cx="201" cy="3" r="3" transform="rotate(-90 201 3)" fill="#D9D7D0"/>
<circle cx="219" cy="291" r="3" transform="rotate(-90 219 291)" fill="#D9D7D0"/>
<circle cx="219" cy="273" r="3" transform="rotate(-90 219 273)" fill="#D9D7D0"/>
<circle cx="219" cy="255" r="3" transform="rotate(-90 219 255)" fill="#38DDD3"/>
<circle cx="219" cy="237" r="3" transform="rotate(-90 219 237)" fill="#D9D7D0"/>
<circle cx="219" cy="219" r="3" transform="rotate(-90 219 219)" fill="#D9D7D0"/>
<circle cx="219" cy="201" r="3" transform="rotate(-90 219 201)" fill="#D9D7D0"/>
<circle cx="219" cy="183" r="3" transform="rotate(-90 219 183)" fill="#D9D7D0"/>
<circle cx="219" cy="165" r="3" transform="rotate(-90 219 165)" fill="#D9D7D0"/>
<circle cx="219" cy="147" r="3" transform="rotate(-90 219 147)" fill="#D9D7D0"/>
<circle cx="219" cy="129" r="3" transform="rotate(-90 219 129)" fill="#D9D7D0"/>
<circle cx="219" cy="111" r="3" transform="rotate(-90 219 111)" fill="#D9D7D0"/>
<circle cx="219" cy="93" r="3" transform="rotate(-90 219 93)" fill="#D9D7D0"/>
<circle cx="219" cy="75" r="3" transform="rotate(-90 219 75)" fill="#D9D7D0"/>
<circle cx="219" cy="57" r="3" transform="rotate(-90 219 57)" fill="#38DDD3"/>
<circle cx="219" cy="39" r="3" transform="rotate(-90 219 39)" fill="#D9D7D0"/>
<circle cx="219" cy="21" r="3" transform="rotate(-90 219 21)" fill="#D9D7D0"/>
<circle cx="219" cy="3" r="3" transform="rotate(-90 219 3)" fill="#38DDD3"/>
<circle cx="237" cy="291" r="3" transform="rotate(-90 237 291)" fill="#D9D7D0"/>
<circle cx="237" cy="273" r="3" transform="rotate(-90 237 273)" fill="#D9D7D0"/>
<circle cx="237" cy="255" r="3" transform="rotate(-90 237 255)" fill="#D9D7D0"/>
<circle cx="237" cy="237" r="3" transform="rotate(-90 237 237)" fill="#38DDD3"/>
<circle cx="237" cy="219" r="3" transform="rotate(-90 237 219)" fill="#FF4BC2"/>
<circle cx="237" cy="201" r="3" transform="rotate(-90 237 201)" fill="#D9D7D0"/>
<circle cx="237" cy="183" r="3" transform="rotate(-90 237 183)" fill="#D9D7D0"/>
<circle cx="237" cy="165" r="3" transform="rotate(-90 237 165)" fill="#D9D7D0"/>
<circle cx="237" cy="147" r="3" transform="rotate(-90 237 147)" fill="#D9D7D0"/>
<circle cx="237" cy="129" r="3" transform="rotate(-90 237 129)" fill="#D9D7D0"/>
<circle cx="237" cy="111" r="3" transform="rotate(-90 237 111)" fill="#D9D7D0"/>
<circle cx="237" cy="93" r="3" transform="rotate(-90 237 93)" fill="#D9D7D0"/>
<circle cx="237" cy="75" r="3" transform="rotate(-90 237 75)" fill="#D9D7D0"/>
<circle cx="237" cy="57" r="3" transform="rotate(-90 237 57)" fill="#FF4BC2"/>
<circle cx="237" cy="39" r="3" transform="rotate(-90 237 39)" fill="#1E48DC"/>
<circle cx="237" cy="21" r="3" transform="rotate(-90 237 21)" fill="#0E0E0E"/>
<circle cx="237" cy="3" r="3" transform="rotate(-90 237 3)" fill="#DD3838"/>
<circle cx="255" cy="291" r="3" transform="rotate(-90 255 291)" fill="#D9D7D0"/>
<circle cx="255" cy="273" r="3" transform="rotate(-90 255 273)" fill="#D9D7D0"/>
<circle cx="255" cy="255" r="3" transform="rotate(-90 255 255)" fill="#D9D7D0"/>
<circle cx="255" cy="237" r="3" transform="rotate(-90 255 237)" fill="#DD3838"/>
<circle cx="255" cy="219" r="3" transform="rotate(-90 255 219)" fill="#D9D7D0"/>
<circle cx="255" cy="201" r="3" transform="rotate(-90 255 201)" fill="#D9D7D0"/>
<circle cx="255" cy="183" r="3" transform="rotate(-90 255 183)" fill="#D9D7D0"/>
<circle cx="255" cy="165" r="3" transform="rotate(-90 255 165)" fill="#FFC42B"/>
<circle cx="255" cy="147" r="3" transform="rotate(-90 255 147)" fill="#D9D7D0"/>
<circle cx="255" cy="129" r="3" transform="rotate(-90 255 129)" fill="#D9D7D0"/>
<circle cx="255" cy="111" r="3" transform="rotate(-90 255 111)" fill="#D9D7D0"/>
<circle cx="255" cy="93" r="3" transform="rotate(-90 255 93)" fill="#38DDD3"/>
<circle cx="255" cy="75" r="3" transform="rotate(-90 255 75)" fill="#D9D7D0"/>
<circle cx="255" cy="57" r="3" transform="rotate(-90 255 57)" fill="#D9D7D0"/>
<circle cx="255" cy="39" r="3" transform="rotate(-90 255 39)" fill="#D9D7D0"/>
<circle cx="255" cy="21" r="3" transform="rotate(-90 255 21)" fill="#D9D7D0"/>
<circle cx="255" cy="3" r="3" transform="rotate(-90 255 3)" fill="#FFC42B"/>
<circle cx="273" cy="291" r="3" transform="rotate(-90 273 291)" fill="#D9D7D0"/>
<circle cx="273" cy="273" r="3" transform="rotate(-90 273 273)" fill="#D9D7D0"/>
<circle cx="273" cy="255" r="3" transform="rotate(-90 273 255)" fill="#D9D7D0"/>
<circle cx="273" cy="237" r="3" transform="rotate(-90 273 237)" fill="#D9D7D0"/>
<circle cx="273" cy="219" r="3" transform="rotate(-90 273 219)" fill="#D9D7D0"/>
<circle cx="273" cy="201" r="3" transform="rotate(-90 273 201)" fill="#FFC42B"/>
<circle cx="273" cy="183" r="3" transform="rotate(-90 273 183)" fill="#D9D7D0"/>
<circle cx="273" cy="165" r="3" transform="rotate(-90 273 165)" fill="#D9D7D0"/>
<circle cx="273" cy="147" r="3" transform="rotate(-90 273 147)" fill="#D9D7D0"/>
<circle cx="273" cy="129" r="3" transform="rotate(-90 273 129)" fill="#38DDD3"/>
<circle cx="273" cy="111" r="3" transform="rotate(-90 273 111)" fill="#DD3838"/>
<circle cx="273" cy="93" r="3" transform="rotate(-90 273 93)" fill="#D9D7D0"/>
<circle cx="273" cy="75" r="3" transform="rotate(-90 273 75)" fill="#D9D7D0"/>
<circle cx="273" cy="57" r="3" transform="rotate(-90 273 57)" fill="#D9D7D0"/>
<circle cx="273" cy="39" r="3" transform="rotate(-90 273 39)" fill="#D9D7D0"/>
<circle cx="273" cy="21" r="3" transform="rotate(-90 273 21)" fill="#D9D7D0"/>
<circle cx="273" cy="3" r="3" transform="rotate(-90 273 3)" fill="#D9D7D0"/>
<circle cx="291" cy="291" r="3" transform="rotate(-90 291 291)" fill="#D9D7D0"/>
<circle cx="291" cy="273" r="3" transform="rotate(-90 291 273)" fill="#D9D7D0"/>
<circle cx="291" cy="255" r="3" transform="rotate(-90 291 255)" fill="#1E48DC"/>
<circle cx="291" cy="237" r="3" transform="rotate(-90 291 237)" fill="#D9D7D0"/>
<circle cx="291" cy="219" r="3" transform="rotate(-90 291 219)" fill="#D9D7D0"/>
<circle cx="291" cy="201" r="3" transform="rotate(-90 291 201)" fill="#D9D7D0"/>
<circle cx="291" cy="183" r="3" transform="rotate(-90 291 183)" fill="#D9D7D0"/>
<circle cx="291" cy="165" r="3" transform="rotate(-90 291 165)" fill="#D9D7D0"/>
<circle cx="291" cy="147" r="3" transform="rotate(-90 291 147)" fill="#FF4BC2"/>
<circle cx="291" cy="129" r="3" transform="rotate(-90 291 129)" fill="#D9D7D0"/>
<circle cx="291" cy="111" r="3" transform="rotate(-90 291 111)" fill="#FFC42B"/>
<circle cx="291" cy="93" r="3" transform="rotate(-90 291 93)" fill="#D9D7D0"/>
<circle cx="291" cy="75" r="3" transform="rotate(-90 291 75)" fill="#D9D7D0"/>
<circle cx="291" cy="57" r="3" transform="rotate(-90 291 57)" fill="#D9D7D0"/>
<circle cx="291" cy="39" r="3" transform="rotate(-90 291 39)" fill="#D9D7D0"/>
<circle cx="291" cy="21" r="3" transform="rotate(-90 291 21)" fill="#D9D7D0"/>
<circle cx="291" cy="3" r="3" transform="rotate(-90 291 3)" fill="#D9D7D0"/>
</svg>
