<svg width="143" height="152" viewBox="0 0 143 152" fill="none" xmlns="http://www.w3.org/2000/svg">
<circle cx="75" cy="61" r="61" fill="#38DDD3"/>
<g style="mix-blend-mode:multiply">
<circle cx="82" cy="66" r="61" fill="#FF4BC2"/>
</g>
<circle cx="1.19388" cy="150.806" r="1.19388" transform="rotate(-90 1.19388 150.806)" fill="#FFC42B"/>
<circle cx="1.19388" cy="143.643" r="1.19388" transform="rotate(-90 1.19388 143.643)" fill="#FFC42B"/>
<circle cx="1.19388" cy="136.478" r="1.19388" transform="rotate(-90 1.19388 136.478)" fill="#FFC42B"/>
<circle cx="1.19388" cy="129.315" r="1.19388" transform="rotate(-90 1.19388 129.315)" fill="#FFC42B"/>
<circle cx="1.19388" cy="122.152" r="1.19388" transform="rotate(-90 1.19388 122.152)" fill="#FFC42B"/>
<circle cx="1.19388" cy="114.989" r="1.19388" transform="rotate(-90 1.19388 114.989)" fill="#FFC42B"/>
<circle cx="1.19388" cy="107.826" r="1.19388" transform="rotate(-90 1.19388 107.826)" fill="#FFC42B"/>
<circle cx="1.19388" cy="100.663" r="1.19388" transform="rotate(-90 1.19388 100.663)" fill="#FFC42B"/>
<circle cx="1.19388" cy="93.5" r="1.19388" transform="rotate(-90 1.19388 93.5)" fill="#FFC42B"/>
<circle cx="1.19388" cy="86.3369" r="1.19388" transform="rotate(-90 1.19388 86.3369)" fill="#FFC42B"/>
<circle cx="1.19388" cy="79.1723" r="1.19388" transform="rotate(-90 1.19388 79.1723)" fill="#FFC42B"/>
<circle cx="1.19388" cy="72.0097" r="1.19388" transform="rotate(-90 1.19388 72.0097)" fill="#FFC42B"/>
<circle cx="1.19388" cy="64.8466" r="1.19388" transform="rotate(-90 1.19388 64.8466)" fill="#FFC42B"/>
<circle cx="1.19388" cy="57.6836" r="1.19388" transform="rotate(-90 1.19388 57.6836)" fill="#FFC42B"/>
<circle cx="1.19388" cy="50.52" r="1.19388" transform="rotate(-90 1.19388 50.52)" fill="#FFC42B"/>
<circle cx="1.19388" cy="43.3569" r="1.19388" transform="rotate(-90 1.19388 43.3569)" fill="#FFC42B"/>
<circle cx="1.19388" cy="36.1938" r="1.19388" transform="rotate(-90 1.19388 36.1938)" fill="#FFC42B"/>
<circle cx="8.35721" cy="150.806" r="1.19388" transform="rotate(-90 8.35721 150.806)" fill="#FFC42B"/>
<circle cx="8.35721" cy="143.643" r="1.19388" transform="rotate(-90 8.35721 143.643)" fill="#FFC42B"/>
<circle cx="8.35721" cy="136.478" r="1.19388" transform="rotate(-90 8.35721 136.478)" fill="#FFC42B"/>
<circle cx="8.35721" cy="129.315" r="1.19388" transform="rotate(-90 8.35721 129.315)" fill="#FFC42B"/>
<circle cx="8.35721" cy="122.152" r="1.19388" transform="rotate(-90 8.35721 122.152)" fill="#FFC42B"/>
<circle cx="8.35721" cy="114.989" r="1.19388" transform="rotate(-90 8.35721 114.989)" fill="#FFC42B"/>
<circle cx="8.35721" cy="107.826" r="1.19388" transform="rotate(-90 8.35721 107.826)" fill="#FFC42B"/>
<circle cx="8.35721" cy="100.663" r="1.19388" transform="rotate(-90 8.35721 100.663)" fill="#FFC42B"/>
<circle cx="8.35721" cy="93.5" r="1.19388" transform="rotate(-90 8.35721 93.5)" fill="#FFC42B"/>
<circle cx="8.35721" cy="86.3369" r="1.19388" transform="rotate(-90 8.35721 86.3369)" fill="#FFC42B"/>
<circle cx="8.35721" cy="79.1723" r="1.19388" transform="rotate(-90 8.35721 79.1723)" fill="#FFC42B"/>
<circle cx="8.35721" cy="72.0097" r="1.19388" transform="rotate(-90 8.35721 72.0097)" fill="#FFC42B"/>
<circle cx="8.35721" cy="64.8466" r="1.19388" transform="rotate(-90 8.35721 64.8466)" fill="#FFC42B"/>
<circle cx="8.35721" cy="57.6836" r="1.19388" transform="rotate(-90 8.35721 57.6836)" fill="#FFC42B"/>
<circle cx="8.35721" cy="50.52" r="1.19388" transform="rotate(-90 8.35721 50.52)" fill="#FFC42B"/>
<circle cx="8.35721" cy="43.3569" r="1.19388" transform="rotate(-90 8.35721 43.3569)" fill="#FFC42B"/>
<circle cx="8.35721" cy="36.1938" r="1.19388" transform="rotate(-90 8.35721 36.1938)" fill="#FFC42B"/>
<circle cx="15.5204" cy="150.806" r="1.19388" transform="rotate(-90 15.5204 150.806)" fill="#FFC42B"/>
<circle cx="15.5204" cy="143.643" r="1.19388" transform="rotate(-90 15.5204 143.643)" fill="#FFC42B"/>
<circle cx="15.5204" cy="136.478" r="1.19388" transform="rotate(-90 15.5204 136.478)" fill="#FFC42B"/>
<circle cx="15.5204" cy="129.315" r="1.19388" transform="rotate(-90 15.5204 129.315)" fill="#FFC42B"/>
<circle cx="15.5204" cy="122.152" r="1.19388" transform="rotate(-90 15.5204 122.152)" fill="#FFC42B"/>
<circle cx="15.5204" cy="114.989" r="1.19388" transform="rotate(-90 15.5204 114.989)" fill="#FFC42B"/>
<circle cx="15.5204" cy="107.826" r="1.19388" transform="rotate(-90 15.5204 107.826)" fill="#FFC42B"/>
<circle cx="15.5204" cy="100.663" r="1.19388" transform="rotate(-90 15.5204 100.663)" fill="#FFC42B"/>
<circle cx="15.5204" cy="93.5" r="1.19388" transform="rotate(-90 15.5204 93.5)" fill="#FFC42B"/>
<circle cx="15.5204" cy="86.3369" r="1.19388" transform="rotate(-90 15.5204 86.3369)" fill="#FFC42B"/>
<circle cx="15.5204" cy="79.1723" r="1.19388" transform="rotate(-90 15.5204 79.1723)" fill="#FFC42B"/>
<circle cx="15.5204" cy="72.0097" r="1.19388" transform="rotate(-90 15.5204 72.0097)" fill="#FFC42B"/>
<circle cx="15.5204" cy="64.8466" r="1.19388" transform="rotate(-90 15.5204 64.8466)" fill="#FFC42B"/>
<circle cx="15.5204" cy="57.6836" r="1.19388" transform="rotate(-90 15.5204 57.6836)" fill="#FFC42B"/>
<circle cx="15.5204" cy="50.52" r="1.19388" transform="rotate(-90 15.5204 50.52)" fill="#FFC42B"/>
<circle cx="15.5204" cy="43.3569" r="1.19388" transform="rotate(-90 15.5204 43.3569)" fill="#FFC42B"/>
<circle cx="15.5204" cy="36.1938" r="1.19388" transform="rotate(-90 15.5204 36.1938)" fill="#FFC42B"/>
<circle cx="22.6836" cy="150.806" r="1.19388" transform="rotate(-90 22.6836 150.806)" fill="#FFC42B"/>
<circle cx="22.6836" cy="143.643" r="1.19388" transform="rotate(-90 22.6836 143.643)" fill="#FFC42B"/>
<circle cx="22.6836" cy="136.478" r="1.19388" transform="rotate(-90 22.6836 136.478)" fill="#FFC42B"/>
<circle cx="22.6836" cy="129.315" r="1.19388" transform="rotate(-90 22.6836 129.315)" fill="#FFC42B"/>
<circle cx="22.6836" cy="122.152" r="1.19388" transform="rotate(-90 22.6836 122.152)" fill="#FFC42B"/>
<circle cx="22.6836" cy="114.989" r="1.19388" transform="rotate(-90 22.6836 114.989)" fill="#FFC42B"/>
<circle cx="22.6836" cy="107.826" r="1.19388" transform="rotate(-90 22.6836 107.826)" fill="#FFC42B"/>
<circle cx="22.6836" cy="100.663" r="1.19388" transform="rotate(-90 22.6836 100.663)" fill="#FFC42B"/>
<circle cx="22.6836" cy="93.5" r="1.19388" transform="rotate(-90 22.6836 93.5)" fill="#FFC42B"/>
<circle cx="22.6836" cy="86.3369" r="1.19388" transform="rotate(-90 22.6836 86.3369)" fill="#FFC42B"/>
<circle cx="22.6836" cy="79.1723" r="1.19388" transform="rotate(-90 22.6836 79.1723)" fill="#FFC42B"/>
<circle cx="22.6836" cy="72.0097" r="1.19388" transform="rotate(-90 22.6836 72.0097)" fill="#FFC42B"/>
<circle cx="22.6836" cy="64.8466" r="1.19388" transform="rotate(-90 22.6836 64.8466)" fill="#FFC42B"/>
<circle cx="22.6836" cy="57.6836" r="1.19388" transform="rotate(-90 22.6836 57.6836)" fill="#FFC42B"/>
<circle cx="22.6836" cy="50.52" r="1.19388" transform="rotate(-90 22.6836 50.52)" fill="#FFC42B"/>
<circle cx="22.6836" cy="43.3569" r="1.19388" transform="rotate(-90 22.6836 43.3569)" fill="#FFC42B"/>
<circle cx="22.6836" cy="36.1938" r="1.19388" transform="rotate(-90 22.6836 36.1938)" fill="#FFC42B"/>
<circle cx="29.8468" cy="150.806" r="1.19388" transform="rotate(-90 29.8468 150.806)" fill="#FFC42B"/>
<circle cx="29.8468" cy="143.643" r="1.19388" transform="rotate(-90 29.8468 143.643)" fill="#FFC42B"/>
<circle cx="29.8468" cy="136.478" r="1.19388" transform="rotate(-90 29.8468 136.478)" fill="#FFC42B"/>
<circle cx="29.8468" cy="129.315" r="1.19388" transform="rotate(-90 29.8468 129.315)" fill="#FFC42B"/>
<circle cx="29.8468" cy="122.152" r="1.19388" transform="rotate(-90 29.8468 122.152)" fill="#FFC42B"/>
<circle cx="29.8468" cy="114.989" r="1.19388" transform="rotate(-90 29.8468 114.989)" fill="#FFC42B"/>
<circle cx="29.8468" cy="107.826" r="1.19388" transform="rotate(-90 29.8468 107.826)" fill="#FFC42B"/>
<circle cx="29.8468" cy="100.663" r="1.19388" transform="rotate(-90 29.8468 100.663)" fill="#FFC42B"/>
<circle cx="29.8468" cy="93.5" r="1.19388" transform="rotate(-90 29.8468 93.5)" fill="#FFC42B"/>
<circle cx="29.8468" cy="86.3369" r="1.19388" transform="rotate(-90 29.8468 86.3369)" fill="#FFC42B"/>
<circle cx="29.8468" cy="79.1723" r="1.19388" transform="rotate(-90 29.8468 79.1723)" fill="#FFC42B"/>
<circle cx="29.8468" cy="72.0097" r="1.19388" transform="rotate(-90 29.8468 72.0097)" fill="#FFC42B"/>
<circle cx="29.8468" cy="64.8466" r="1.19388" transform="rotate(-90 29.8468 64.8466)" fill="#FFC42B"/>
<circle cx="29.8468" cy="57.6836" r="1.19388" transform="rotate(-90 29.8468 57.6836)" fill="#FFC42B"/>
<circle cx="29.8468" cy="50.52" r="1.19388" transform="rotate(-90 29.8468 50.52)" fill="#FFC42B"/>
<circle cx="29.8468" cy="43.3569" r="1.19388" transform="rotate(-90 29.8468 43.3569)" fill="#FFC42B"/>
<circle cx="29.8468" cy="36.1938" r="1.19388" transform="rotate(-90 29.8468 36.1938)" fill="#FFC42B"/>
<circle cx="37.0102" cy="150.806" r="1.19388" transform="rotate(-90 37.0102 150.806)" fill="#FFC42B"/>
<circle cx="37.0102" cy="143.643" r="1.19388" transform="rotate(-90 37.0102 143.643)" fill="#FFC42B"/>
<circle cx="37.0102" cy="136.478" r="1.19388" transform="rotate(-90 37.0102 136.478)" fill="#FFC42B"/>
<circle cx="37.0102" cy="129.315" r="1.19388" transform="rotate(-90 37.0102 129.315)" fill="#FFC42B"/>
<circle cx="37.0102" cy="122.152" r="1.19388" transform="rotate(-90 37.0102 122.152)" fill="#FFC42B"/>
<circle cx="37.0102" cy="114.989" r="1.19388" transform="rotate(-90 37.0102 114.989)" fill="#FFC42B"/>
<circle cx="37.0102" cy="107.826" r="1.19388" transform="rotate(-90 37.0102 107.826)" fill="#FFC42B"/>
<circle cx="37.0102" cy="100.663" r="1.19388" transform="rotate(-90 37.0102 100.663)" fill="#FFC42B"/>
<circle cx="37.0102" cy="93.5" r="1.19388" transform="rotate(-90 37.0102 93.5)" fill="#FFC42B"/>
<circle cx="37.0102" cy="86.3369" r="1.19388" transform="rotate(-90 37.0102 86.3369)" fill="#FFC42B"/>
<circle cx="37.0102" cy="79.1723" r="1.19388" transform="rotate(-90 37.0102 79.1723)" fill="#FFC42B"/>
<circle cx="37.0102" cy="72.0097" r="1.19388" transform="rotate(-90 37.0102 72.0097)" fill="#FFC42B"/>
<circle cx="37.0102" cy="64.8466" r="1.19388" transform="rotate(-90 37.0102 64.8466)" fill="#FFC42B"/>
<circle cx="37.0102" cy="57.6836" r="1.19388" transform="rotate(-90 37.0102 57.6836)" fill="#FFC42B"/>
<circle cx="37.0102" cy="50.52" r="1.19388" transform="rotate(-90 37.0102 50.52)" fill="#FFC42B"/>
<circle cx="37.0102" cy="43.3569" r="1.19388" transform="rotate(-90 37.0102 43.3569)" fill="#FFC42B"/>
<circle cx="37.0102" cy="36.1938" r="1.19388" transform="rotate(-90 37.0102 36.1938)" fill="#FFC42B"/>
<circle cx="44.1734" cy="150.806" r="1.19388" transform="rotate(-90 44.1734 150.806)" fill="#FFC42B"/>
<circle cx="44.1734" cy="143.643" r="1.19388" transform="rotate(-90 44.1734 143.643)" fill="#FFC42B"/>
<circle cx="44.1734" cy="136.478" r="1.19388" transform="rotate(-90 44.1734 136.478)" fill="#FFC42B"/>
<circle cx="44.1734" cy="129.315" r="1.19388" transform="rotate(-90 44.1734 129.315)" fill="#FFC42B"/>
<circle cx="44.1734" cy="122.152" r="1.19388" transform="rotate(-90 44.1734 122.152)" fill="#FFC42B"/>
<circle cx="44.1734" cy="114.989" r="1.19388" transform="rotate(-90 44.1734 114.989)" fill="#FFC42B"/>
<circle cx="44.1734" cy="107.826" r="1.19388" transform="rotate(-90 44.1734 107.826)" fill="#FFC42B"/>
<circle cx="44.1734" cy="100.663" r="1.19388" transform="rotate(-90 44.1734 100.663)" fill="#FFC42B"/>
<circle cx="44.1734" cy="93.5" r="1.19388" transform="rotate(-90 44.1734 93.5)" fill="#FFC42B"/>
<circle cx="44.1734" cy="86.3369" r="1.19388" transform="rotate(-90 44.1734 86.3369)" fill="#FFC42B"/>
<circle cx="44.1734" cy="79.1723" r="1.19388" transform="rotate(-90 44.1734 79.1723)" fill="#FFC42B"/>
<circle cx="44.1734" cy="72.0097" r="1.19388" transform="rotate(-90 44.1734 72.0097)" fill="#FFC42B"/>
<circle cx="44.1734" cy="64.8466" r="1.19388" transform="rotate(-90 44.1734 64.8466)" fill="#FFC42B"/>
<circle cx="44.1734" cy="57.6836" r="1.19388" transform="rotate(-90 44.1734 57.6836)" fill="#FFC42B"/>
<circle cx="44.1734" cy="50.52" r="1.19388" transform="rotate(-90 44.1734 50.52)" fill="#FFC42B"/>
<circle cx="44.1734" cy="43.3569" r="1.19388" transform="rotate(-90 44.1734 43.3569)" fill="#FFC42B"/>
<circle cx="44.1734" cy="36.1938" r="1.19388" transform="rotate(-90 44.1734 36.1938)" fill="#FFC42B"/>
<circle cx="51.3367" cy="150.806" r="1.19388" transform="rotate(-90 51.3367 150.806)" fill="#FFC42B"/>
<circle cx="51.3367" cy="143.643" r="1.19388" transform="rotate(-90 51.3367 143.643)" fill="#FFC42B"/>
<circle cx="51.3367" cy="136.478" r="1.19388" transform="rotate(-90 51.3367 136.478)" fill="#FFC42B"/>
<circle cx="51.3367" cy="129.315" r="1.19388" transform="rotate(-90 51.3367 129.315)" fill="#FFC42B"/>
<circle cx="51.3367" cy="122.152" r="1.19388" transform="rotate(-90 51.3367 122.152)" fill="#FFC42B"/>
<circle cx="51.3367" cy="114.989" r="1.19388" transform="rotate(-90 51.3367 114.989)" fill="#FFC42B"/>
<circle cx="51.3367" cy="107.826" r="1.19388" transform="rotate(-90 51.3367 107.826)" fill="#FFC42B"/>
<circle cx="51.3367" cy="100.663" r="1.19388" transform="rotate(-90 51.3367 100.663)" fill="#FFC42B"/>
<circle cx="51.3367" cy="93.5" r="1.19388" transform="rotate(-90 51.3367 93.5)" fill="#FFC42B"/>
<circle cx="51.3367" cy="86.3369" r="1.19388" transform="rotate(-90 51.3367 86.3369)" fill="#FFC42B"/>
<circle cx="51.3367" cy="79.1723" r="1.19388" transform="rotate(-90 51.3367 79.1723)" fill="#FFC42B"/>
<circle cx="51.3367" cy="72.0097" r="1.19388" transform="rotate(-90 51.3367 72.0097)" fill="#FFC42B"/>
<circle cx="51.3367" cy="64.8466" r="1.19388" transform="rotate(-90 51.3367 64.8466)" fill="#FFC42B"/>
<circle cx="51.3367" cy="57.6836" r="1.19388" transform="rotate(-90 51.3367 57.6836)" fill="#FFC42B"/>
<circle cx="51.3367" cy="50.52" r="1.19388" transform="rotate(-90 51.3367 50.52)" fill="#FFC42B"/>
<circle cx="51.3367" cy="43.3569" r="1.19388" transform="rotate(-90 51.3367 43.3569)" fill="#FFC42B"/>
<circle cx="51.3367" cy="36.1938" r="1.19388" transform="rotate(-90 51.3367 36.1938)" fill="#FFC42B"/>
<circle cx="58.4998" cy="150.806" r="1.19388" transform="rotate(-90 58.4998 150.806)" fill="#FFC42B"/>
<circle cx="58.4998" cy="143.643" r="1.19388" transform="rotate(-90 58.4998 143.643)" fill="#FFC42B"/>
<circle cx="58.4998" cy="136.478" r="1.19388" transform="rotate(-90 58.4998 136.478)" fill="#FFC42B"/>
<circle cx="58.4998" cy="129.315" r="1.19388" transform="rotate(-90 58.4998 129.315)" fill="#FFC42B"/>
<circle cx="58.4998" cy="122.152" r="1.19388" transform="rotate(-90 58.4998 122.152)" fill="#FFC42B"/>
<circle cx="58.4998" cy="114.989" r="1.19388" transform="rotate(-90 58.4998 114.989)" fill="#FFC42B"/>
<circle cx="58.4998" cy="107.826" r="1.19388" transform="rotate(-90 58.4998 107.826)" fill="#FFC42B"/>
<circle cx="58.4998" cy="100.663" r="1.19388" transform="rotate(-90 58.4998 100.663)" fill="#FFC42B"/>
<circle cx="58.4998" cy="93.5" r="1.19388" transform="rotate(-90 58.4998 93.5)" fill="#FFC42B"/>
<circle cx="58.4998" cy="86.3369" r="1.19388" transform="rotate(-90 58.4998 86.3369)" fill="#FFC42B"/>
<circle cx="58.4998" cy="79.1723" r="1.19388" transform="rotate(-90 58.4998 79.1723)" fill="#FFC42B"/>
<circle cx="58.4998" cy="72.0097" r="1.19388" transform="rotate(-90 58.4998 72.0097)" fill="#FFC42B"/>
<circle cx="58.4998" cy="64.8466" r="1.19388" transform="rotate(-90 58.4998 64.8466)" fill="#FFC42B"/>
<circle cx="58.4998" cy="57.6836" r="1.19388" transform="rotate(-90 58.4998 57.6836)" fill="#FFC42B"/>
<circle cx="58.4998" cy="50.52" r="1.19388" transform="rotate(-90 58.4998 50.52)" fill="#FFC42B"/>
<circle cx="58.4998" cy="43.3569" r="1.19388" transform="rotate(-90 58.4998 43.3569)" fill="#FFC42B"/>
<circle cx="58.4998" cy="36.1938" r="1.19388" transform="rotate(-90 58.4998 36.1938)" fill="#FFC42B"/>
<circle cx="65.6632" cy="150.806" r="1.19388" transform="rotate(-90 65.6632 150.806)" fill="#FFC42B"/>
<circle cx="65.6632" cy="143.643" r="1.19388" transform="rotate(-90 65.6632 143.643)" fill="#FFC42B"/>
<circle cx="65.6632" cy="136.478" r="1.19388" transform="rotate(-90 65.6632 136.478)" fill="#FFC42B"/>
<circle cx="65.6632" cy="129.315" r="1.19388" transform="rotate(-90 65.6632 129.315)" fill="#FFC42B"/>
<circle cx="65.6632" cy="122.152" r="1.19388" transform="rotate(-90 65.6632 122.152)" fill="#FFC42B"/>
<circle cx="65.6632" cy="114.989" r="1.19388" transform="rotate(-90 65.6632 114.989)" fill="#FFC42B"/>
<circle cx="65.6632" cy="107.826" r="1.19388" transform="rotate(-90 65.6632 107.826)" fill="#FFC42B"/>
<circle cx="65.6632" cy="100.663" r="1.19388" transform="rotate(-90 65.6632 100.663)" fill="#FFC42B"/>
<circle cx="65.6632" cy="93.5" r="1.19388" transform="rotate(-90 65.6632 93.5)" fill="#FFC42B"/>
<circle cx="65.6632" cy="86.3369" r="1.19388" transform="rotate(-90 65.6632 86.3369)" fill="#FFC42B"/>
<circle cx="65.6632" cy="79.1723" r="1.19388" transform="rotate(-90 65.6632 79.1723)" fill="#FFC42B"/>
<circle cx="65.6632" cy="72.0097" r="1.19388" transform="rotate(-90 65.6632 72.0097)" fill="#FFC42B"/>
<circle cx="65.6632" cy="64.8466" r="1.19388" transform="rotate(-90 65.6632 64.8466)" fill="#FFC42B"/>
<circle cx="65.6632" cy="57.6836" r="1.19388" transform="rotate(-90 65.6632 57.6836)" fill="#FFC42B"/>
<circle cx="65.6632" cy="50.52" r="1.19388" transform="rotate(-90 65.6632 50.52)" fill="#FFC42B"/>
<circle cx="65.6632" cy="43.3569" r="1.19388" transform="rotate(-90 65.6632 43.3569)" fill="#FFC42B"/>
<circle cx="65.6632" cy="36.1938" r="1.19388" transform="rotate(-90 65.6632 36.1938)" fill="#FFC42B"/>
<circle cx="72.8266" cy="150.806" r="1.19388" transform="rotate(-90 72.8266 150.806)" fill="#FFC42B"/>
<circle cx="72.8266" cy="143.643" r="1.19388" transform="rotate(-90 72.8266 143.643)" fill="#FFC42B"/>
<circle cx="72.8266" cy="136.478" r="1.19388" transform="rotate(-90 72.8266 136.478)" fill="#FFC42B"/>
<circle cx="72.8266" cy="129.315" r="1.19388" transform="rotate(-90 72.8266 129.315)" fill="#FFC42B"/>
<circle cx="72.8266" cy="122.152" r="1.19388" transform="rotate(-90 72.8266 122.152)" fill="#FFC42B"/>
<circle cx="72.8266" cy="114.989" r="1.19388" transform="rotate(-90 72.8266 114.989)" fill="#FFC42B"/>
<circle cx="72.8266" cy="107.826" r="1.19388" transform="rotate(-90 72.8266 107.826)" fill="#FFC42B"/>
<circle cx="72.8266" cy="100.663" r="1.19388" transform="rotate(-90 72.8266 100.663)" fill="#FFC42B"/>
<circle cx="72.8266" cy="93.5" r="1.19388" transform="rotate(-90 72.8266 93.5)" fill="#FFC42B"/>
<circle cx="72.8266" cy="86.3369" r="1.19388" transform="rotate(-90 72.8266 86.3369)" fill="#FFC42B"/>
<circle cx="72.8266" cy="79.1723" r="1.19388" transform="rotate(-90 72.8266 79.1723)" fill="#FFC42B"/>
<circle cx="72.8266" cy="72.0097" r="1.19388" transform="rotate(-90 72.8266 72.0097)" fill="#FFC42B"/>
<circle cx="72.8266" cy="64.8466" r="1.19388" transform="rotate(-90 72.8266 64.8466)" fill="#FFC42B"/>
<circle cx="72.8266" cy="57.6836" r="1.19388" transform="rotate(-90 72.8266 57.6836)" fill="#FFC42B"/>
<circle cx="72.8266" cy="50.52" r="1.19388" transform="rotate(-90 72.8266 50.52)" fill="#FFC42B"/>
<circle cx="72.8266" cy="43.3569" r="1.19388" transform="rotate(-90 72.8266 43.3569)" fill="#FFC42B"/>
<circle cx="72.8266" cy="36.1938" r="1.19388" transform="rotate(-90 72.8266 36.1938)" fill="#FFC42B"/>
<circle cx="79.9898" cy="150.806" r="1.19388" transform="rotate(-90 79.9898 150.806)" fill="#FFC42B"/>
<circle cx="79.9898" cy="143.643" r="1.19388" transform="rotate(-90 79.9898 143.643)" fill="#FFC42B"/>
<circle cx="79.9898" cy="136.478" r="1.19388" transform="rotate(-90 79.9898 136.478)" fill="#FFC42B"/>
<circle cx="79.9898" cy="129.315" r="1.19388" transform="rotate(-90 79.9898 129.315)" fill="#FFC42B"/>
<circle cx="79.9898" cy="122.152" r="1.19388" transform="rotate(-90 79.9898 122.152)" fill="#FFC42B"/>
<circle cx="79.9898" cy="114.989" r="1.19388" transform="rotate(-90 79.9898 114.989)" fill="#FFC42B"/>
<circle cx="79.9898" cy="107.826" r="1.19388" transform="rotate(-90 79.9898 107.826)" fill="#FFC42B"/>
<circle cx="79.9898" cy="100.663" r="1.19388" transform="rotate(-90 79.9898 100.663)" fill="#FFC42B"/>
<circle cx="79.9898" cy="93.5" r="1.19388" transform="rotate(-90 79.9898 93.5)" fill="#FFC42B"/>
<circle cx="79.9898" cy="86.3369" r="1.19388" transform="rotate(-90 79.9898 86.3369)" fill="#FFC42B"/>
<circle cx="79.9898" cy="79.1723" r="1.19388" transform="rotate(-90 79.9898 79.1723)" fill="#FFC42B"/>
<circle cx="79.9898" cy="72.0097" r="1.19388" transform="rotate(-90 79.9898 72.0097)" fill="#FFC42B"/>
<circle cx="79.9898" cy="64.8466" r="1.19388" transform="rotate(-90 79.9898 64.8466)" fill="#FFC42B"/>
<circle cx="79.9898" cy="57.6836" r="1.19388" transform="rotate(-90 79.9898 57.6836)" fill="#FFC42B"/>
<circle cx="79.9898" cy="50.52" r="1.19388" transform="rotate(-90 79.9898 50.52)" fill="#FFC42B"/>
<circle cx="79.9898" cy="43.3569" r="1.19388" transform="rotate(-90 79.9898 43.3569)" fill="#FFC42B"/>
<circle cx="79.9898" cy="36.1938" r="1.19388" transform="rotate(-90 79.9898 36.1938)" fill="#FFC42B"/>
<circle cx="87.1531" cy="150.806" r="1.19388" transform="rotate(-90 87.1531 150.806)" fill="#FFC42B"/>
<circle cx="87.1531" cy="143.643" r="1.19388" transform="rotate(-90 87.1531 143.643)" fill="#FFC42B"/>
<circle cx="87.1531" cy="136.478" r="1.19388" transform="rotate(-90 87.1531 136.478)" fill="#FFC42B"/>
<circle cx="87.1531" cy="129.315" r="1.19388" transform="rotate(-90 87.1531 129.315)" fill="#FFC42B"/>
<circle cx="87.1531" cy="122.152" r="1.19388" transform="rotate(-90 87.1531 122.152)" fill="#FFC42B"/>
<circle cx="87.1531" cy="114.989" r="1.19388" transform="rotate(-90 87.1531 114.989)" fill="#FFC42B"/>
<circle cx="87.1531" cy="107.826" r="1.19388" transform="rotate(-90 87.1531 107.826)" fill="#FFC42B"/>
<circle cx="87.1531" cy="100.663" r="1.19388" transform="rotate(-90 87.1531 100.663)" fill="#FFC42B"/>
<circle cx="87.1531" cy="93.5" r="1.19388" transform="rotate(-90 87.1531 93.5)" fill="#FFC42B"/>
<circle cx="87.1531" cy="86.3369" r="1.19388" transform="rotate(-90 87.1531 86.3369)" fill="#FFC42B"/>
<circle cx="87.1531" cy="79.1723" r="1.19388" transform="rotate(-90 87.1531 79.1723)" fill="#FFC42B"/>
<circle cx="87.1531" cy="72.0097" r="1.19388" transform="rotate(-90 87.1531 72.0097)" fill="#FFC42B"/>
<circle cx="87.1531" cy="64.8466" r="1.19388" transform="rotate(-90 87.1531 64.8466)" fill="#FFC42B"/>
<circle cx="87.1531" cy="57.6836" r="1.19388" transform="rotate(-90 87.1531 57.6836)" fill="#FFC42B"/>
<circle cx="87.1531" cy="50.52" r="1.19388" transform="rotate(-90 87.1531 50.52)" fill="#FFC42B"/>
<circle cx="87.1531" cy="43.3569" r="1.19388" transform="rotate(-90 87.1531 43.3569)" fill="#FFC42B"/>
<circle cx="87.1531" cy="36.1938" r="1.19388" transform="rotate(-90 87.1531 36.1938)" fill="#FFC42B"/>
<circle cx="94.3166" cy="150.806" r="1.19388" transform="rotate(-90 94.3166 150.806)" fill="#FFC42B"/>
<circle cx="94.3166" cy="143.643" r="1.19388" transform="rotate(-90 94.3166 143.643)" fill="#FFC42B"/>
<circle cx="94.3166" cy="136.478" r="1.19388" transform="rotate(-90 94.3166 136.478)" fill="#FFC42B"/>
<circle cx="94.3166" cy="129.315" r="1.19388" transform="rotate(-90 94.3166 129.315)" fill="#FFC42B"/>
<circle cx="94.3166" cy="122.152" r="1.19388" transform="rotate(-90 94.3166 122.152)" fill="#FFC42B"/>
<circle cx="94.3166" cy="114.989" r="1.19388" transform="rotate(-90 94.3166 114.989)" fill="#FFC42B"/>
<circle cx="94.3166" cy="107.826" r="1.19388" transform="rotate(-90 94.3166 107.826)" fill="#FFC42B"/>
<circle cx="94.3166" cy="100.663" r="1.19388" transform="rotate(-90 94.3166 100.663)" fill="#FFC42B"/>
<circle cx="94.3166" cy="93.5" r="1.19388" transform="rotate(-90 94.3166 93.5)" fill="#FFC42B"/>
<circle cx="94.3166" cy="86.3369" r="1.19388" transform="rotate(-90 94.3166 86.3369)" fill="#FFC42B"/>
<circle cx="94.3166" cy="79.1723" r="1.19388" transform="rotate(-90 94.3166 79.1723)" fill="#FFC42B"/>
<circle cx="94.3166" cy="72.0097" r="1.19388" transform="rotate(-90 94.3166 72.0097)" fill="#FFC42B"/>
<circle cx="94.3166" cy="64.8466" r="1.19388" transform="rotate(-90 94.3166 64.8466)" fill="#FFC42B"/>
<circle cx="94.3166" cy="57.6836" r="1.19388" transform="rotate(-90 94.3166 57.6836)" fill="#FFC42B"/>
<circle cx="94.3166" cy="50.52" r="1.19388" transform="rotate(-90 94.3166 50.52)" fill="#FFC42B"/>
<circle cx="94.3166" cy="43.3569" r="1.19388" transform="rotate(-90 94.3166 43.3569)" fill="#FFC42B"/>
<circle cx="94.3166" cy="36.1938" r="1.19388" transform="rotate(-90 94.3166 36.1938)" fill="#FFC42B"/>
<circle cx="101.48" cy="150.806" r="1.19388" transform="rotate(-90 101.48 150.806)" fill="#FFC42B"/>
<circle cx="101.48" cy="143.643" r="1.19388" transform="rotate(-90 101.48 143.643)" fill="#FFC42B"/>
<circle cx="101.48" cy="136.478" r="1.19388" transform="rotate(-90 101.48 136.478)" fill="#FFC42B"/>
<circle cx="101.48" cy="129.315" r="1.19388" transform="rotate(-90 101.48 129.315)" fill="#FFC42B"/>
<circle cx="101.48" cy="122.152" r="1.19388" transform="rotate(-90 101.48 122.152)" fill="#FFC42B"/>
<circle cx="101.48" cy="114.989" r="1.19388" transform="rotate(-90 101.48 114.989)" fill="#FFC42B"/>
<circle cx="101.48" cy="107.826" r="1.19388" transform="rotate(-90 101.48 107.826)" fill="#FFC42B"/>
<circle cx="101.48" cy="100.663" r="1.19388" transform="rotate(-90 101.48 100.663)" fill="#FFC42B"/>
<circle cx="101.48" cy="93.5" r="1.19388" transform="rotate(-90 101.48 93.5)" fill="#FFC42B"/>
<circle cx="101.48" cy="86.3369" r="1.19388" transform="rotate(-90 101.48 86.3369)" fill="#FFC42B"/>
<circle cx="101.48" cy="79.1723" r="1.19388" transform="rotate(-90 101.48 79.1723)" fill="#FFC42B"/>
<circle cx="101.48" cy="72.0097" r="1.19388" transform="rotate(-90 101.48 72.0097)" fill="#FFC42B"/>
<circle cx="101.48" cy="64.8466" r="1.19388" transform="rotate(-90 101.48 64.8466)" fill="#FFC42B"/>
<circle cx="101.48" cy="57.6836" r="1.19388" transform="rotate(-90 101.48 57.6836)" fill="#FFC42B"/>
<circle cx="101.48" cy="50.52" r="1.19388" transform="rotate(-90 101.48 50.52)" fill="#FFC42B"/>
<circle cx="101.48" cy="43.3569" r="1.19388" transform="rotate(-90 101.48 43.3569)" fill="#FFC42B"/>
<circle cx="101.48" cy="36.1938" r="1.19388" transform="rotate(-90 101.48 36.1938)" fill="#FFC42B"/>
<circle cx="108.643" cy="150.806" r="1.19388" transform="rotate(-90 108.643 150.806)" fill="#FFC42B"/>
<circle cx="108.643" cy="143.643" r="1.19388" transform="rotate(-90 108.643 143.643)" fill="#FFC42B"/>
<circle cx="108.643" cy="136.478" r="1.19388" transform="rotate(-90 108.643 136.478)" fill="#FFC42B"/>
<circle cx="108.643" cy="129.315" r="1.19388" transform="rotate(-90 108.643 129.315)" fill="#FFC42B"/>
<circle cx="108.643" cy="122.152" r="1.19388" transform="rotate(-90 108.643 122.152)" fill="#FFC42B"/>
<circle cx="108.643" cy="114.989" r="1.19388" transform="rotate(-90 108.643 114.989)" fill="#FFC42B"/>
<circle cx="108.643" cy="107.826" r="1.19388" transform="rotate(-90 108.643 107.826)" fill="#FFC42B"/>
<circle cx="108.643" cy="100.663" r="1.19388" transform="rotate(-90 108.643 100.663)" fill="#FFC42B"/>
<circle cx="108.643" cy="93.5" r="1.19388" transform="rotate(-90 108.643 93.5)" fill="#FFC42B"/>
<circle cx="108.643" cy="86.3369" r="1.19388" transform="rotate(-90 108.643 86.3369)" fill="#FFC42B"/>
<circle cx="108.643" cy="79.1723" r="1.19388" transform="rotate(-90 108.643 79.1723)" fill="#FFC42B"/>
<circle cx="108.643" cy="72.0097" r="1.19388" transform="rotate(-90 108.643 72.0097)" fill="#FFC42B"/>
<circle cx="108.643" cy="64.8466" r="1.19388" transform="rotate(-90 108.643 64.8466)" fill="#FFC42B"/>
<circle cx="108.643" cy="57.6836" r="1.19388" transform="rotate(-90 108.643 57.6836)" fill="#FFC42B"/>
<circle cx="108.643" cy="50.52" r="1.19388" transform="rotate(-90 108.643 50.52)" fill="#FFC42B"/>
<circle cx="108.643" cy="43.3569" r="1.19388" transform="rotate(-90 108.643 43.3569)" fill="#FFC42B"/>
<circle cx="108.643" cy="36.1938" r="1.19388" transform="rotate(-90 108.643 36.1938)" fill="#FFC42B"/>
<circle cx="115.806" cy="150.806" r="1.19388" transform="rotate(-90 115.806 150.806)" fill="#FFC42B"/>
<circle cx="115.806" cy="143.643" r="1.19388" transform="rotate(-90 115.806 143.643)" fill="#FFC42B"/>
<circle cx="115.806" cy="136.478" r="1.19388" transform="rotate(-90 115.806 136.478)" fill="#FFC42B"/>
<circle cx="115.806" cy="129.315" r="1.19388" transform="rotate(-90 115.806 129.315)" fill="#FFC42B"/>
<circle cx="115.806" cy="122.152" r="1.19388" transform="rotate(-90 115.806 122.152)" fill="#FFC42B"/>
<circle cx="115.806" cy="114.989" r="1.19388" transform="rotate(-90 115.806 114.989)" fill="#FFC42B"/>
<circle cx="115.806" cy="107.826" r="1.19388" transform="rotate(-90 115.806 107.826)" fill="#FFC42B"/>
<circle cx="115.806" cy="100.663" r="1.19388" transform="rotate(-90 115.806 100.663)" fill="#FFC42B"/>
<circle cx="115.806" cy="93.5" r="1.19388" transform="rotate(-90 115.806 93.5)" fill="#FFC42B"/>
<circle cx="115.806" cy="86.3369" r="1.19388" transform="rotate(-90 115.806 86.3369)" fill="#FFC42B"/>
<circle cx="115.806" cy="79.1723" r="1.19388" transform="rotate(-90 115.806 79.1723)" fill="#FFC42B"/>
<circle cx="115.806" cy="72.0097" r="1.19388" transform="rotate(-90 115.806 72.0097)" fill="#FFC42B"/>
<circle cx="115.806" cy="64.8466" r="1.19388" transform="rotate(-90 115.806 64.8466)" fill="#FFC42B"/>
<circle cx="115.806" cy="57.6836" r="1.19388" transform="rotate(-90 115.806 57.6836)" fill="#FFC42B"/>
<circle cx="115.806" cy="50.52" r="1.19388" transform="rotate(-90 115.806 50.52)" fill="#FFC42B"/>
<circle cx="115.806" cy="43.3569" r="1.19388" transform="rotate(-90 115.806 43.3569)" fill="#FFC42B"/>
<circle cx="115.806" cy="36.1938" r="1.19388" transform="rotate(-90 115.806 36.1938)" fill="#FFC42B"/>
</svg>
