<svg width="150" height="145" viewBox="0 0 150 145" fill="none" xmlns="http://www.w3.org/2000/svg">
<circle cx="61" cy="61" r="61" fill="#DD3838"/>
<g style="mix-blend-mode:multiply">
<circle cx="68" cy="66" r="61" fill="#10059F"/>
</g>
<circle cx="34.1939" cy="143.806" r="1.19388" transform="rotate(-90 34.1939 143.806)" fill="#38DDD3"/>
<circle cx="34.1939" cy="136.643" r="1.19388" transform="rotate(-90 34.1939 136.643)" fill="#38DDD3"/>
<circle cx="34.1939" cy="129.478" r="1.19388" transform="rotate(-90 34.1939 129.478)" fill="#38DDD3"/>
<circle cx="34.1939" cy="122.315" r="1.19388" transform="rotate(-90 34.1939 122.315)" fill="#38DDD3"/>
<circle cx="34.1939" cy="115.152" r="1.19388" transform="rotate(-90 34.1939 115.152)" fill="#38DDD3"/>
<circle cx="34.1939" cy="107.989" r="1.19388" transform="rotate(-90 34.1939 107.989)" fill="#38DDD3"/>
<circle cx="34.1939" cy="100.826" r="1.19388" transform="rotate(-90 34.1939 100.826)" fill="#38DDD3"/>
<circle cx="34.1939" cy="93.6631" r="1.19388" transform="rotate(-90 34.1939 93.6631)" fill="#38DDD3"/>
<circle cx="34.1939" cy="86.5" r="1.19388" transform="rotate(-90 34.1939 86.5)" fill="#38DDD3"/>
<circle cx="34.1939" cy="79.3369" r="1.19388" transform="rotate(-90 34.1939 79.3369)" fill="#38DDD3"/>
<circle cx="34.1939" cy="72.1723" r="1.19388" transform="rotate(-90 34.1939 72.1723)" fill="#38DDD3"/>
<circle cx="34.1939" cy="65.0097" r="1.19388" transform="rotate(-90 34.1939 65.0097)" fill="#38DDD3"/>
<circle cx="34.1939" cy="57.8466" r="1.19388" transform="rotate(-90 34.1939 57.8466)" fill="#38DDD3"/>
<circle cx="34.1939" cy="50.6836" r="1.19388" transform="rotate(-90 34.1939 50.6836)" fill="#38DDD3"/>
<circle cx="34.1939" cy="43.52" r="1.19388" transform="rotate(-90 34.1939 43.52)" fill="#38DDD3"/>
<circle cx="34.1939" cy="36.3569" r="1.19388" transform="rotate(-90 34.1939 36.3569)" fill="#38DDD3"/>
<circle cx="34.1939" cy="29.1938" r="1.19388" transform="rotate(-90 34.1939 29.1938)" fill="#38DDD3"/>
<circle cx="41.3572" cy="143.806" r="1.19388" transform="rotate(-90 41.3572 143.806)" fill="#38DDD3"/>
<circle cx="41.3572" cy="136.643" r="1.19388" transform="rotate(-90 41.3572 136.643)" fill="#38DDD3"/>
<circle cx="41.3572" cy="129.478" r="1.19388" transform="rotate(-90 41.3572 129.478)" fill="#38DDD3"/>
<circle cx="41.3572" cy="122.315" r="1.19388" transform="rotate(-90 41.3572 122.315)" fill="#38DDD3"/>
<circle cx="41.3572" cy="115.152" r="1.19388" transform="rotate(-90 41.3572 115.152)" fill="#38DDD3"/>
<circle cx="41.3572" cy="107.989" r="1.19388" transform="rotate(-90 41.3572 107.989)" fill="#38DDD3"/>
<circle cx="41.3572" cy="100.826" r="1.19388" transform="rotate(-90 41.3572 100.826)" fill="#38DDD3"/>
<circle cx="41.3572" cy="93.6631" r="1.19388" transform="rotate(-90 41.3572 93.6631)" fill="#38DDD3"/>
<circle cx="41.3572" cy="86.5" r="1.19388" transform="rotate(-90 41.3572 86.5)" fill="#38DDD3"/>
<circle cx="41.3572" cy="79.3369" r="1.19388" transform="rotate(-90 41.3572 79.3369)" fill="#38DDD3"/>
<circle cx="41.3572" cy="72.1723" r="1.19388" transform="rotate(-90 41.3572 72.1723)" fill="#38DDD3"/>
<circle cx="41.3572" cy="65.0097" r="1.19388" transform="rotate(-90 41.3572 65.0097)" fill="#38DDD3"/>
<circle cx="41.3572" cy="57.8466" r="1.19388" transform="rotate(-90 41.3572 57.8466)" fill="#38DDD3"/>
<circle cx="41.3572" cy="50.6836" r="1.19388" transform="rotate(-90 41.3572 50.6836)" fill="#38DDD3"/>
<circle cx="41.3572" cy="43.52" r="1.19388" transform="rotate(-90 41.3572 43.52)" fill="#38DDD3"/>
<circle cx="41.3572" cy="36.3569" r="1.19388" transform="rotate(-90 41.3572 36.3569)" fill="#38DDD3"/>
<circle cx="41.3572" cy="29.1938" r="1.19388" transform="rotate(-90 41.3572 29.1938)" fill="#38DDD3"/>
<circle cx="48.5204" cy="143.806" r="1.19388" transform="rotate(-90 48.5204 143.806)" fill="#38DDD3"/>
<circle cx="48.5204" cy="136.643" r="1.19388" transform="rotate(-90 48.5204 136.643)" fill="#38DDD3"/>
<circle cx="48.5204" cy="129.478" r="1.19388" transform="rotate(-90 48.5204 129.478)" fill="#38DDD3"/>
<circle cx="48.5204" cy="122.315" r="1.19388" transform="rotate(-90 48.5204 122.315)" fill="#38DDD3"/>
<circle cx="48.5204" cy="115.152" r="1.19388" transform="rotate(-90 48.5204 115.152)" fill="#38DDD3"/>
<circle cx="48.5204" cy="107.989" r="1.19388" transform="rotate(-90 48.5204 107.989)" fill="#38DDD3"/>
<circle cx="48.5204" cy="100.826" r="1.19388" transform="rotate(-90 48.5204 100.826)" fill="#38DDD3"/>
<circle cx="48.5204" cy="93.6631" r="1.19388" transform="rotate(-90 48.5204 93.6631)" fill="#38DDD3"/>
<circle cx="48.5204" cy="86.5" r="1.19388" transform="rotate(-90 48.5204 86.5)" fill="#38DDD3"/>
<circle cx="48.5204" cy="79.3369" r="1.19388" transform="rotate(-90 48.5204 79.3369)" fill="#38DDD3"/>
<circle cx="48.5204" cy="72.1723" r="1.19388" transform="rotate(-90 48.5204 72.1723)" fill="#38DDD3"/>
<circle cx="48.5204" cy="65.0097" r="1.19388" transform="rotate(-90 48.5204 65.0097)" fill="#38DDD3"/>
<circle cx="48.5204" cy="57.8466" r="1.19388" transform="rotate(-90 48.5204 57.8466)" fill="#38DDD3"/>
<circle cx="48.5204" cy="50.6836" r="1.19388" transform="rotate(-90 48.5204 50.6836)" fill="#38DDD3"/>
<circle cx="48.5204" cy="43.52" r="1.19388" transform="rotate(-90 48.5204 43.52)" fill="#38DDD3"/>
<circle cx="48.5204" cy="36.3569" r="1.19388" transform="rotate(-90 48.5204 36.3569)" fill="#38DDD3"/>
<circle cx="48.5204" cy="29.1938" r="1.19388" transform="rotate(-90 48.5204 29.1938)" fill="#38DDD3"/>
<circle cx="55.6836" cy="143.806" r="1.19388" transform="rotate(-90 55.6836 143.806)" fill="#38DDD3"/>
<circle cx="55.6836" cy="136.643" r="1.19388" transform="rotate(-90 55.6836 136.643)" fill="#38DDD3"/>
<circle cx="55.6836" cy="129.478" r="1.19388" transform="rotate(-90 55.6836 129.478)" fill="#38DDD3"/>
<circle cx="55.6836" cy="122.315" r="1.19388" transform="rotate(-90 55.6836 122.315)" fill="#38DDD3"/>
<circle cx="55.6836" cy="115.152" r="1.19388" transform="rotate(-90 55.6836 115.152)" fill="#38DDD3"/>
<circle cx="55.6836" cy="107.989" r="1.19388" transform="rotate(-90 55.6836 107.989)" fill="#38DDD3"/>
<circle cx="55.6836" cy="100.826" r="1.19388" transform="rotate(-90 55.6836 100.826)" fill="#38DDD3"/>
<circle cx="55.6836" cy="93.6631" r="1.19388" transform="rotate(-90 55.6836 93.6631)" fill="#38DDD3"/>
<circle cx="55.6836" cy="86.5" r="1.19388" transform="rotate(-90 55.6836 86.5)" fill="#38DDD3"/>
<circle cx="55.6836" cy="79.3369" r="1.19388" transform="rotate(-90 55.6836 79.3369)" fill="#38DDD3"/>
<circle cx="55.6836" cy="72.1723" r="1.19388" transform="rotate(-90 55.6836 72.1723)" fill="#38DDD3"/>
<circle cx="55.6836" cy="65.0097" r="1.19388" transform="rotate(-90 55.6836 65.0097)" fill="#38DDD3"/>
<circle cx="55.6836" cy="57.8466" r="1.19388" transform="rotate(-90 55.6836 57.8466)" fill="#38DDD3"/>
<circle cx="55.6836" cy="50.6836" r="1.19388" transform="rotate(-90 55.6836 50.6836)" fill="#38DDD3"/>
<circle cx="55.6836" cy="43.52" r="1.19388" transform="rotate(-90 55.6836 43.52)" fill="#38DDD3"/>
<circle cx="55.6836" cy="36.3569" r="1.19388" transform="rotate(-90 55.6836 36.3569)" fill="#38DDD3"/>
<circle cx="55.6836" cy="29.1938" r="1.19388" transform="rotate(-90 55.6836 29.1938)" fill="#38DDD3"/>
<circle cx="62.8468" cy="143.806" r="1.19388" transform="rotate(-90 62.8468 143.806)" fill="#38DDD3"/>
<circle cx="62.8468" cy="136.643" r="1.19388" transform="rotate(-90 62.8468 136.643)" fill="#38DDD3"/>
<circle cx="62.8468" cy="129.478" r="1.19388" transform="rotate(-90 62.8468 129.478)" fill="#38DDD3"/>
<circle cx="62.8468" cy="122.315" r="1.19388" transform="rotate(-90 62.8468 122.315)" fill="#38DDD3"/>
<circle cx="62.8468" cy="115.152" r="1.19388" transform="rotate(-90 62.8468 115.152)" fill="#38DDD3"/>
<circle cx="62.8468" cy="107.989" r="1.19388" transform="rotate(-90 62.8468 107.989)" fill="#38DDD3"/>
<circle cx="62.8468" cy="100.826" r="1.19388" transform="rotate(-90 62.8468 100.826)" fill="#38DDD3"/>
<circle cx="62.8468" cy="93.6631" r="1.19388" transform="rotate(-90 62.8468 93.6631)" fill="#38DDD3"/>
<circle cx="62.8468" cy="86.5" r="1.19388" transform="rotate(-90 62.8468 86.5)" fill="#38DDD3"/>
<circle cx="62.8468" cy="79.3369" r="1.19388" transform="rotate(-90 62.8468 79.3369)" fill="#38DDD3"/>
<circle cx="62.8468" cy="72.1723" r="1.19388" transform="rotate(-90 62.8468 72.1723)" fill="#38DDD3"/>
<circle cx="62.8468" cy="65.0097" r="1.19388" transform="rotate(-90 62.8468 65.0097)" fill="#38DDD3"/>
<circle cx="62.8468" cy="57.8466" r="1.19388" transform="rotate(-90 62.8468 57.8466)" fill="#38DDD3"/>
<circle cx="62.8468" cy="50.6836" r="1.19388" transform="rotate(-90 62.8468 50.6836)" fill="#38DDD3"/>
<circle cx="62.8468" cy="43.52" r="1.19388" transform="rotate(-90 62.8468 43.52)" fill="#38DDD3"/>
<circle cx="62.8468" cy="36.3569" r="1.19388" transform="rotate(-90 62.8468 36.3569)" fill="#38DDD3"/>
<circle cx="62.8468" cy="29.1938" r="1.19388" transform="rotate(-90 62.8468 29.1938)" fill="#38DDD3"/>
<circle cx="70.0102" cy="143.806" r="1.19388" transform="rotate(-90 70.0102 143.806)" fill="#38DDD3"/>
<circle cx="70.0102" cy="136.643" r="1.19388" transform="rotate(-90 70.0102 136.643)" fill="#38DDD3"/>
<circle cx="70.0102" cy="129.478" r="1.19388" transform="rotate(-90 70.0102 129.478)" fill="#38DDD3"/>
<circle cx="70.0102" cy="122.315" r="1.19388" transform="rotate(-90 70.0102 122.315)" fill="#38DDD3"/>
<circle cx="70.0102" cy="115.152" r="1.19388" transform="rotate(-90 70.0102 115.152)" fill="#38DDD3"/>
<circle cx="70.0102" cy="107.989" r="1.19388" transform="rotate(-90 70.0102 107.989)" fill="#38DDD3"/>
<circle cx="70.0102" cy="100.826" r="1.19388" transform="rotate(-90 70.0102 100.826)" fill="#38DDD3"/>
<circle cx="70.0102" cy="93.6631" r="1.19388" transform="rotate(-90 70.0102 93.6631)" fill="#38DDD3"/>
<circle cx="70.0102" cy="86.5" r="1.19388" transform="rotate(-90 70.0102 86.5)" fill="#38DDD3"/>
<circle cx="70.0102" cy="79.3369" r="1.19388" transform="rotate(-90 70.0102 79.3369)" fill="#38DDD3"/>
<circle cx="70.0102" cy="72.1723" r="1.19388" transform="rotate(-90 70.0102 72.1723)" fill="#38DDD3"/>
<circle cx="70.0102" cy="65.0097" r="1.19388" transform="rotate(-90 70.0102 65.0097)" fill="#38DDD3"/>
<circle cx="70.0102" cy="57.8466" r="1.19388" transform="rotate(-90 70.0102 57.8466)" fill="#38DDD3"/>
<circle cx="70.0102" cy="50.6836" r="1.19388" transform="rotate(-90 70.0102 50.6836)" fill="#38DDD3"/>
<circle cx="70.0102" cy="43.52" r="1.19388" transform="rotate(-90 70.0102 43.52)" fill="#38DDD3"/>
<circle cx="70.0102" cy="36.3569" r="1.19388" transform="rotate(-90 70.0102 36.3569)" fill="#38DDD3"/>
<circle cx="70.0102" cy="29.1938" r="1.19388" transform="rotate(-90 70.0102 29.1938)" fill="#38DDD3"/>
<circle cx="77.1734" cy="143.806" r="1.19388" transform="rotate(-90 77.1734 143.806)" fill="#38DDD3"/>
<circle cx="77.1734" cy="136.643" r="1.19388" transform="rotate(-90 77.1734 136.643)" fill="#38DDD3"/>
<circle cx="77.1734" cy="129.478" r="1.19388" transform="rotate(-90 77.1734 129.478)" fill="#38DDD3"/>
<circle cx="77.1734" cy="122.315" r="1.19388" transform="rotate(-90 77.1734 122.315)" fill="#38DDD3"/>
<circle cx="77.1734" cy="115.152" r="1.19388" transform="rotate(-90 77.1734 115.152)" fill="#38DDD3"/>
<circle cx="77.1734" cy="107.989" r="1.19388" transform="rotate(-90 77.1734 107.989)" fill="#38DDD3"/>
<circle cx="77.1734" cy="100.826" r="1.19388" transform="rotate(-90 77.1734 100.826)" fill="#38DDD3"/>
<circle cx="77.1734" cy="93.6631" r="1.19388" transform="rotate(-90 77.1734 93.6631)" fill="#38DDD3"/>
<circle cx="77.1734" cy="86.5" r="1.19388" transform="rotate(-90 77.1734 86.5)" fill="#38DDD3"/>
<circle cx="77.1734" cy="79.3369" r="1.19388" transform="rotate(-90 77.1734 79.3369)" fill="#38DDD3"/>
<circle cx="77.1734" cy="72.1723" r="1.19388" transform="rotate(-90 77.1734 72.1723)" fill="#38DDD3"/>
<circle cx="77.1734" cy="65.0097" r="1.19388" transform="rotate(-90 77.1734 65.0097)" fill="#38DDD3"/>
<circle cx="77.1734" cy="57.8466" r="1.19388" transform="rotate(-90 77.1734 57.8466)" fill="#38DDD3"/>
<circle cx="77.1734" cy="50.6836" r="1.19388" transform="rotate(-90 77.1734 50.6836)" fill="#38DDD3"/>
<circle cx="77.1734" cy="43.52" r="1.19388" transform="rotate(-90 77.1734 43.52)" fill="#38DDD3"/>
<circle cx="77.1734" cy="36.3569" r="1.19388" transform="rotate(-90 77.1734 36.3569)" fill="#38DDD3"/>
<circle cx="77.1734" cy="29.1938" r="1.19388" transform="rotate(-90 77.1734 29.1938)" fill="#38DDD3"/>
<circle cx="84.3367" cy="143.806" r="1.19388" transform="rotate(-90 84.3367 143.806)" fill="#38DDD3"/>
<circle cx="84.3367" cy="136.643" r="1.19388" transform="rotate(-90 84.3367 136.643)" fill="#38DDD3"/>
<circle cx="84.3367" cy="129.478" r="1.19388" transform="rotate(-90 84.3367 129.478)" fill="#38DDD3"/>
<circle cx="84.3367" cy="122.315" r="1.19388" transform="rotate(-90 84.3367 122.315)" fill="#38DDD3"/>
<circle cx="84.3367" cy="115.152" r="1.19388" transform="rotate(-90 84.3367 115.152)" fill="#38DDD3"/>
<circle cx="84.3367" cy="107.989" r="1.19388" transform="rotate(-90 84.3367 107.989)" fill="#38DDD3"/>
<circle cx="84.3367" cy="100.826" r="1.19388" transform="rotate(-90 84.3367 100.826)" fill="#38DDD3"/>
<circle cx="84.3367" cy="93.6631" r="1.19388" transform="rotate(-90 84.3367 93.6631)" fill="#38DDD3"/>
<circle cx="84.3367" cy="86.5" r="1.19388" transform="rotate(-90 84.3367 86.5)" fill="#38DDD3"/>
<circle cx="84.3367" cy="79.3369" r="1.19388" transform="rotate(-90 84.3367 79.3369)" fill="#38DDD3"/>
<circle cx="84.3367" cy="72.1723" r="1.19388" transform="rotate(-90 84.3367 72.1723)" fill="#38DDD3"/>
<circle cx="84.3367" cy="65.0097" r="1.19388" transform="rotate(-90 84.3367 65.0097)" fill="#38DDD3"/>
<circle cx="84.3367" cy="57.8466" r="1.19388" transform="rotate(-90 84.3367 57.8466)" fill="#38DDD3"/>
<circle cx="84.3367" cy="50.6836" r="1.19388" transform="rotate(-90 84.3367 50.6836)" fill="#38DDD3"/>
<circle cx="84.3367" cy="43.52" r="1.19388" transform="rotate(-90 84.3367 43.52)" fill="#38DDD3"/>
<circle cx="84.3367" cy="36.3569" r="1.19388" transform="rotate(-90 84.3367 36.3569)" fill="#38DDD3"/>
<circle cx="84.3367" cy="29.1938" r="1.19388" transform="rotate(-90 84.3367 29.1938)" fill="#38DDD3"/>
<circle cx="91.4998" cy="143.806" r="1.19388" transform="rotate(-90 91.4998 143.806)" fill="#38DDD3"/>
<circle cx="91.4998" cy="136.643" r="1.19388" transform="rotate(-90 91.4998 136.643)" fill="#38DDD3"/>
<circle cx="91.4998" cy="129.478" r="1.19388" transform="rotate(-90 91.4998 129.478)" fill="#38DDD3"/>
<circle cx="91.4998" cy="122.315" r="1.19388" transform="rotate(-90 91.4998 122.315)" fill="#38DDD3"/>
<circle cx="91.4998" cy="115.152" r="1.19388" transform="rotate(-90 91.4998 115.152)" fill="#38DDD3"/>
<circle cx="91.4998" cy="107.989" r="1.19388" transform="rotate(-90 91.4998 107.989)" fill="#38DDD3"/>
<circle cx="91.4998" cy="100.826" r="1.19388" transform="rotate(-90 91.4998 100.826)" fill="#38DDD3"/>
<circle cx="91.4998" cy="93.6631" r="1.19388" transform="rotate(-90 91.4998 93.6631)" fill="#38DDD3"/>
<circle cx="91.4998" cy="86.5" r="1.19388" transform="rotate(-90 91.4998 86.5)" fill="#38DDD3"/>
<circle cx="91.4998" cy="79.3369" r="1.19388" transform="rotate(-90 91.4998 79.3369)" fill="#38DDD3"/>
<circle cx="91.4998" cy="72.1723" r="1.19388" transform="rotate(-90 91.4998 72.1723)" fill="#38DDD3"/>
<circle cx="91.4998" cy="65.0097" r="1.19388" transform="rotate(-90 91.4998 65.0097)" fill="#38DDD3"/>
<circle cx="91.4998" cy="57.8466" r="1.19388" transform="rotate(-90 91.4998 57.8466)" fill="#38DDD3"/>
<circle cx="91.4998" cy="50.6836" r="1.19388" transform="rotate(-90 91.4998 50.6836)" fill="#38DDD3"/>
<circle cx="91.4998" cy="43.52" r="1.19388" transform="rotate(-90 91.4998 43.52)" fill="#38DDD3"/>
<circle cx="91.4998" cy="36.3569" r="1.19388" transform="rotate(-90 91.4998 36.3569)" fill="#38DDD3"/>
<circle cx="91.4998" cy="29.1938" r="1.19388" transform="rotate(-90 91.4998 29.1938)" fill="#38DDD3"/>
<circle cx="98.6632" cy="143.806" r="1.19388" transform="rotate(-90 98.6632 143.806)" fill="#38DDD3"/>
<circle cx="98.6632" cy="136.643" r="1.19388" transform="rotate(-90 98.6632 136.643)" fill="#38DDD3"/>
<circle cx="98.6632" cy="129.478" r="1.19388" transform="rotate(-90 98.6632 129.478)" fill="#38DDD3"/>
<circle cx="98.6632" cy="122.315" r="1.19388" transform="rotate(-90 98.6632 122.315)" fill="#38DDD3"/>
<circle cx="98.6632" cy="115.152" r="1.19388" transform="rotate(-90 98.6632 115.152)" fill="#38DDD3"/>
<circle cx="98.6632" cy="107.989" r="1.19388" transform="rotate(-90 98.6632 107.989)" fill="#38DDD3"/>
<circle cx="98.6632" cy="100.826" r="1.19388" transform="rotate(-90 98.6632 100.826)" fill="#38DDD3"/>
<circle cx="98.6632" cy="93.6631" r="1.19388" transform="rotate(-90 98.6632 93.6631)" fill="#38DDD3"/>
<circle cx="98.6632" cy="86.5" r="1.19388" transform="rotate(-90 98.6632 86.5)" fill="#38DDD3"/>
<circle cx="98.6632" cy="79.3369" r="1.19388" transform="rotate(-90 98.6632 79.3369)" fill="#38DDD3"/>
<circle cx="98.6632" cy="72.1723" r="1.19388" transform="rotate(-90 98.6632 72.1723)" fill="#38DDD3"/>
<circle cx="98.6632" cy="65.0097" r="1.19388" transform="rotate(-90 98.6632 65.0097)" fill="#38DDD3"/>
<circle cx="98.6632" cy="57.8466" r="1.19388" transform="rotate(-90 98.6632 57.8466)" fill="#38DDD3"/>
<circle cx="98.6632" cy="50.6836" r="1.19388" transform="rotate(-90 98.6632 50.6836)" fill="#38DDD3"/>
<circle cx="98.6632" cy="43.52" r="1.19388" transform="rotate(-90 98.6632 43.52)" fill="#38DDD3"/>
<circle cx="98.6632" cy="36.3569" r="1.19388" transform="rotate(-90 98.6632 36.3569)" fill="#38DDD3"/>
<circle cx="98.6632" cy="29.1938" r="1.19388" transform="rotate(-90 98.6632 29.1938)" fill="#38DDD3"/>
<circle cx="105.827" cy="143.806" r="1.19388" transform="rotate(-90 105.827 143.806)" fill="#38DDD3"/>
<circle cx="105.827" cy="136.643" r="1.19388" transform="rotate(-90 105.827 136.643)" fill="#38DDD3"/>
<circle cx="105.827" cy="129.478" r="1.19388" transform="rotate(-90 105.827 129.478)" fill="#38DDD3"/>
<circle cx="105.827" cy="122.315" r="1.19388" transform="rotate(-90 105.827 122.315)" fill="#38DDD3"/>
<circle cx="105.827" cy="115.152" r="1.19388" transform="rotate(-90 105.827 115.152)" fill="#38DDD3"/>
<circle cx="105.827" cy="107.989" r="1.19388" transform="rotate(-90 105.827 107.989)" fill="#38DDD3"/>
<circle cx="105.827" cy="100.826" r="1.19388" transform="rotate(-90 105.827 100.826)" fill="#38DDD3"/>
<circle cx="105.827" cy="93.6631" r="1.19388" transform="rotate(-90 105.827 93.6631)" fill="#38DDD3"/>
<circle cx="105.827" cy="86.5" r="1.19388" transform="rotate(-90 105.827 86.5)" fill="#38DDD3"/>
<circle cx="105.827" cy="79.3369" r="1.19388" transform="rotate(-90 105.827 79.3369)" fill="#38DDD3"/>
<circle cx="105.827" cy="72.1723" r="1.19388" transform="rotate(-90 105.827 72.1723)" fill="#38DDD3"/>
<circle cx="105.827" cy="65.0097" r="1.19388" transform="rotate(-90 105.827 65.0097)" fill="#38DDD3"/>
<circle cx="105.827" cy="57.8466" r="1.19388" transform="rotate(-90 105.827 57.8466)" fill="#38DDD3"/>
<circle cx="105.827" cy="50.6836" r="1.19388" transform="rotate(-90 105.827 50.6836)" fill="#38DDD3"/>
<circle cx="105.827" cy="43.52" r="1.19388" transform="rotate(-90 105.827 43.52)" fill="#38DDD3"/>
<circle cx="105.827" cy="36.3569" r="1.19388" transform="rotate(-90 105.827 36.3569)" fill="#38DDD3"/>
<circle cx="105.827" cy="29.1938" r="1.19388" transform="rotate(-90 105.827 29.1938)" fill="#38DDD3"/>
<circle cx="112.99" cy="143.806" r="1.19388" transform="rotate(-90 112.99 143.806)" fill="#38DDD3"/>
<circle cx="112.99" cy="136.643" r="1.19388" transform="rotate(-90 112.99 136.643)" fill="#38DDD3"/>
<circle cx="112.99" cy="129.478" r="1.19388" transform="rotate(-90 112.99 129.478)" fill="#38DDD3"/>
<circle cx="112.99" cy="122.315" r="1.19388" transform="rotate(-90 112.99 122.315)" fill="#38DDD3"/>
<circle cx="112.99" cy="115.152" r="1.19388" transform="rotate(-90 112.99 115.152)" fill="#38DDD3"/>
<circle cx="112.99" cy="107.989" r="1.19388" transform="rotate(-90 112.99 107.989)" fill="#38DDD3"/>
<circle cx="112.99" cy="100.826" r="1.19388" transform="rotate(-90 112.99 100.826)" fill="#38DDD3"/>
<circle cx="112.99" cy="93.6631" r="1.19388" transform="rotate(-90 112.99 93.6631)" fill="#38DDD3"/>
<circle cx="112.99" cy="86.5" r="1.19388" transform="rotate(-90 112.99 86.5)" fill="#38DDD3"/>
<circle cx="112.99" cy="79.3369" r="1.19388" transform="rotate(-90 112.99 79.3369)" fill="#38DDD3"/>
<circle cx="112.99" cy="72.1723" r="1.19388" transform="rotate(-90 112.99 72.1723)" fill="#38DDD3"/>
<circle cx="112.99" cy="65.0097" r="1.19388" transform="rotate(-90 112.99 65.0097)" fill="#38DDD3"/>
<circle cx="112.99" cy="57.8466" r="1.19388" transform="rotate(-90 112.99 57.8466)" fill="#38DDD3"/>
<circle cx="112.99" cy="50.6836" r="1.19388" transform="rotate(-90 112.99 50.6836)" fill="#38DDD3"/>
<circle cx="112.99" cy="43.52" r="1.19388" transform="rotate(-90 112.99 43.52)" fill="#38DDD3"/>
<circle cx="112.99" cy="36.3569" r="1.19388" transform="rotate(-90 112.99 36.3569)" fill="#38DDD3"/>
<circle cx="112.99" cy="29.1938" r="1.19388" transform="rotate(-90 112.99 29.1938)" fill="#38DDD3"/>
<circle cx="120.153" cy="143.806" r="1.19388" transform="rotate(-90 120.153 143.806)" fill="#38DDD3"/>
<circle cx="120.153" cy="136.643" r="1.19388" transform="rotate(-90 120.153 136.643)" fill="#38DDD3"/>
<circle cx="120.153" cy="129.478" r="1.19388" transform="rotate(-90 120.153 129.478)" fill="#38DDD3"/>
<circle cx="120.153" cy="122.315" r="1.19388" transform="rotate(-90 120.153 122.315)" fill="#38DDD3"/>
<circle cx="120.153" cy="115.152" r="1.19388" transform="rotate(-90 120.153 115.152)" fill="#38DDD3"/>
<circle cx="120.153" cy="107.989" r="1.19388" transform="rotate(-90 120.153 107.989)" fill="#38DDD3"/>
<circle cx="120.153" cy="100.826" r="1.19388" transform="rotate(-90 120.153 100.826)" fill="#38DDD3"/>
<circle cx="120.153" cy="93.6631" r="1.19388" transform="rotate(-90 120.153 93.6631)" fill="#38DDD3"/>
<circle cx="120.153" cy="86.5" r="1.19388" transform="rotate(-90 120.153 86.5)" fill="#38DDD3"/>
<circle cx="120.153" cy="79.3369" r="1.19388" transform="rotate(-90 120.153 79.3369)" fill="#38DDD3"/>
<circle cx="120.153" cy="72.1723" r="1.19388" transform="rotate(-90 120.153 72.1723)" fill="#38DDD3"/>
<circle cx="120.153" cy="65.0097" r="1.19388" transform="rotate(-90 120.153 65.0097)" fill="#38DDD3"/>
<circle cx="120.153" cy="57.8466" r="1.19388" transform="rotate(-90 120.153 57.8466)" fill="#38DDD3"/>
<circle cx="120.153" cy="50.6836" r="1.19388" transform="rotate(-90 120.153 50.6836)" fill="#38DDD3"/>
<circle cx="120.153" cy="43.52" r="1.19388" transform="rotate(-90 120.153 43.52)" fill="#38DDD3"/>
<circle cx="120.153" cy="36.3569" r="1.19388" transform="rotate(-90 120.153 36.3569)" fill="#38DDD3"/>
<circle cx="120.153" cy="29.1938" r="1.19388" transform="rotate(-90 120.153 29.1938)" fill="#38DDD3"/>
<circle cx="127.317" cy="143.806" r="1.19388" transform="rotate(-90 127.317 143.806)" fill="#38DDD3"/>
<circle cx="127.317" cy="136.643" r="1.19388" transform="rotate(-90 127.317 136.643)" fill="#38DDD3"/>
<circle cx="127.317" cy="129.478" r="1.19388" transform="rotate(-90 127.317 129.478)" fill="#38DDD3"/>
<circle cx="127.317" cy="122.315" r="1.19388" transform="rotate(-90 127.317 122.315)" fill="#38DDD3"/>
<circle cx="127.317" cy="115.152" r="1.19388" transform="rotate(-90 127.317 115.152)" fill="#38DDD3"/>
<circle cx="127.317" cy="107.989" r="1.19388" transform="rotate(-90 127.317 107.989)" fill="#38DDD3"/>
<circle cx="127.317" cy="100.826" r="1.19388" transform="rotate(-90 127.317 100.826)" fill="#38DDD3"/>
<circle cx="127.317" cy="93.6631" r="1.19388" transform="rotate(-90 127.317 93.6631)" fill="#38DDD3"/>
<circle cx="127.317" cy="86.5" r="1.19388" transform="rotate(-90 127.317 86.5)" fill="#38DDD3"/>
<circle cx="127.317" cy="79.3369" r="1.19388" transform="rotate(-90 127.317 79.3369)" fill="#38DDD3"/>
<circle cx="127.317" cy="72.1723" r="1.19388" transform="rotate(-90 127.317 72.1723)" fill="#38DDD3"/>
<circle cx="127.317" cy="65.0097" r="1.19388" transform="rotate(-90 127.317 65.0097)" fill="#38DDD3"/>
<circle cx="127.317" cy="57.8466" r="1.19388" transform="rotate(-90 127.317 57.8466)" fill="#38DDD3"/>
<circle cx="127.317" cy="50.6836" r="1.19388" transform="rotate(-90 127.317 50.6836)" fill="#38DDD3"/>
<circle cx="127.317" cy="43.52" r="1.19388" transform="rotate(-90 127.317 43.52)" fill="#38DDD3"/>
<circle cx="127.317" cy="36.3569" r="1.19388" transform="rotate(-90 127.317 36.3569)" fill="#38DDD3"/>
<circle cx="127.317" cy="29.1938" r="1.19388" transform="rotate(-90 127.317 29.1938)" fill="#38DDD3"/>
<circle cx="134.48" cy="143.806" r="1.19388" transform="rotate(-90 134.48 143.806)" fill="#38DDD3"/>
<circle cx="134.48" cy="136.643" r="1.19388" transform="rotate(-90 134.48 136.643)" fill="#38DDD3"/>
<circle cx="134.48" cy="129.478" r="1.19388" transform="rotate(-90 134.48 129.478)" fill="#38DDD3"/>
<circle cx="134.48" cy="122.315" r="1.19388" transform="rotate(-90 134.48 122.315)" fill="#38DDD3"/>
<circle cx="134.48" cy="115.152" r="1.19388" transform="rotate(-90 134.48 115.152)" fill="#38DDD3"/>
<circle cx="134.48" cy="107.989" r="1.19388" transform="rotate(-90 134.48 107.989)" fill="#38DDD3"/>
<circle cx="134.48" cy="100.826" r="1.19388" transform="rotate(-90 134.48 100.826)" fill="#38DDD3"/>
<circle cx="134.48" cy="93.6631" r="1.19388" transform="rotate(-90 134.48 93.6631)" fill="#38DDD3"/>
<circle cx="134.48" cy="86.5" r="1.19388" transform="rotate(-90 134.48 86.5)" fill="#38DDD3"/>
<circle cx="134.48" cy="79.3369" r="1.19388" transform="rotate(-90 134.48 79.3369)" fill="#38DDD3"/>
<circle cx="134.48" cy="72.1723" r="1.19388" transform="rotate(-90 134.48 72.1723)" fill="#38DDD3"/>
<circle cx="134.48" cy="65.0097" r="1.19388" transform="rotate(-90 134.48 65.0097)" fill="#38DDD3"/>
<circle cx="134.48" cy="57.8466" r="1.19388" transform="rotate(-90 134.48 57.8466)" fill="#38DDD3"/>
<circle cx="134.48" cy="50.6836" r="1.19388" transform="rotate(-90 134.48 50.6836)" fill="#38DDD3"/>
<circle cx="134.48" cy="43.52" r="1.19388" transform="rotate(-90 134.48 43.52)" fill="#38DDD3"/>
<circle cx="134.48" cy="36.3569" r="1.19388" transform="rotate(-90 134.48 36.3569)" fill="#38DDD3"/>
<circle cx="134.48" cy="29.1938" r="1.19388" transform="rotate(-90 134.48 29.1938)" fill="#38DDD3"/>
<circle cx="141.643" cy="143.806" r="1.19388" transform="rotate(-90 141.643 143.806)" fill="#38DDD3"/>
<circle cx="141.643" cy="136.643" r="1.19388" transform="rotate(-90 141.643 136.643)" fill="#38DDD3"/>
<circle cx="141.643" cy="129.478" r="1.19388" transform="rotate(-90 141.643 129.478)" fill="#38DDD3"/>
<circle cx="141.643" cy="122.315" r="1.19388" transform="rotate(-90 141.643 122.315)" fill="#38DDD3"/>
<circle cx="141.643" cy="115.152" r="1.19388" transform="rotate(-90 141.643 115.152)" fill="#38DDD3"/>
<circle cx="141.643" cy="107.989" r="1.19388" transform="rotate(-90 141.643 107.989)" fill="#38DDD3"/>
<circle cx="141.643" cy="100.826" r="1.19388" transform="rotate(-90 141.643 100.826)" fill="#38DDD3"/>
<circle cx="141.643" cy="93.6631" r="1.19388" transform="rotate(-90 141.643 93.6631)" fill="#38DDD3"/>
<circle cx="141.643" cy="86.5" r="1.19388" transform="rotate(-90 141.643 86.5)" fill="#38DDD3"/>
<circle cx="141.643" cy="79.3369" r="1.19388" transform="rotate(-90 141.643 79.3369)" fill="#38DDD3"/>
<circle cx="141.643" cy="72.1723" r="1.19388" transform="rotate(-90 141.643 72.1723)" fill="#38DDD3"/>
<circle cx="141.643" cy="65.0097" r="1.19388" transform="rotate(-90 141.643 65.0097)" fill="#38DDD3"/>
<circle cx="141.643" cy="57.8466" r="1.19388" transform="rotate(-90 141.643 57.8466)" fill="#38DDD3"/>
<circle cx="141.643" cy="50.6836" r="1.19388" transform="rotate(-90 141.643 50.6836)" fill="#38DDD3"/>
<circle cx="141.643" cy="43.52" r="1.19388" transform="rotate(-90 141.643 43.52)" fill="#38DDD3"/>
<circle cx="141.643" cy="36.3569" r="1.19388" transform="rotate(-90 141.643 36.3569)" fill="#38DDD3"/>
<circle cx="141.643" cy="29.1938" r="1.19388" transform="rotate(-90 141.643 29.1938)" fill="#38DDD3"/>
<circle cx="148.806" cy="143.806" r="1.19388" transform="rotate(-90 148.806 143.806)" fill="#38DDD3"/>
<circle cx="148.806" cy="136.643" r="1.19388" transform="rotate(-90 148.806 136.643)" fill="#38DDD3"/>
<circle cx="148.806" cy="129.478" r="1.19388" transform="rotate(-90 148.806 129.478)" fill="#38DDD3"/>
<circle cx="148.806" cy="122.315" r="1.19388" transform="rotate(-90 148.806 122.315)" fill="#38DDD3"/>
<circle cx="148.806" cy="115.152" r="1.19388" transform="rotate(-90 148.806 115.152)" fill="#38DDD3"/>
<circle cx="148.806" cy="107.989" r="1.19388" transform="rotate(-90 148.806 107.989)" fill="#38DDD3"/>
<circle cx="148.806" cy="100.826" r="1.19388" transform="rotate(-90 148.806 100.826)" fill="#38DDD3"/>
<circle cx="148.806" cy="93.6631" r="1.19388" transform="rotate(-90 148.806 93.6631)" fill="#38DDD3"/>
<circle cx="148.806" cy="86.5" r="1.19388" transform="rotate(-90 148.806 86.5)" fill="#38DDD3"/>
<circle cx="148.806" cy="79.3369" r="1.19388" transform="rotate(-90 148.806 79.3369)" fill="#38DDD3"/>
<circle cx="148.806" cy="72.1723" r="1.19388" transform="rotate(-90 148.806 72.1723)" fill="#38DDD3"/>
<circle cx="148.806" cy="65.0097" r="1.19388" transform="rotate(-90 148.806 65.0097)" fill="#38DDD3"/>
<circle cx="148.806" cy="57.8466" r="1.19388" transform="rotate(-90 148.806 57.8466)" fill="#38DDD3"/>
<circle cx="148.806" cy="50.6836" r="1.19388" transform="rotate(-90 148.806 50.6836)" fill="#38DDD3"/>
<circle cx="148.806" cy="43.52" r="1.19388" transform="rotate(-90 148.806 43.52)" fill="#38DDD3"/>
<circle cx="148.806" cy="36.3569" r="1.19388" transform="rotate(-90 148.806 36.3569)" fill="#38DDD3"/>
<circle cx="148.806" cy="29.1938" r="1.19388" transform="rotate(-90 148.806 29.1938)" fill="#38DDD3"/>
</svg>
