<?xml version="1.0" encoding="UTF-8"?><svg id="Layer_2" xmlns="http://www.w3.org/2000/svg" viewBox="0 0 50 50"><defs><style>.cls-1{fill:none;}.cls-1,.cls-2{stroke-width:0px;}.cls-2{fill:#363633;}</style></defs><g id="Layer_1-2"><path class="cls-2" d="M17.82,45.12c-3.17,0-5.75-2.57-5.75-5.75s2.57-5.75,5.75-5.75h4.11c.91,0,1.64.74,1.64,1.64v4.11c0,3.17-2.57,5.75-5.75,5.75ZM32.18,16.38h-4.11c-.91,0-1.64-.74-1.64-1.64V6.53c0-.91.74-1.64,1.64-1.64h4.11c3.17,0,5.75,2.57,5.75,5.75s-2.57,5.75-5.75,5.75ZM17.82,4.88h4.11c.91,0,1.64.74,1.64,1.64v8.21c0,.91-.74,1.64-1.64,1.64h-4.11c-3.17,0-5.75-2.57-5.75-5.75s2.57-5.75,5.75-5.75ZM17.82,19.25h4.11c.91,0,1.64.74,1.64,1.64v8.21c0,.91-.74,1.64-1.64,1.64h-4.11c-3.17,0-5.75-2.57-5.75-5.75s2.57-5.75,5.75-5.75ZM32.18,19.25c-1.52,0-2.99.61-4.06,1.68-1.08,1.08-1.68,2.54-1.68,4.06s.61,2.99,1.68,4.06c1.08,1.08,2.54,1.68,4.06,1.68s2.99-.61,4.06-1.68c1.08-1.08,1.68-2.54,1.68-4.06s-.61-2.99-1.68-4.06c-1.08-1.08-2.54-1.68-4.06-1.68Z"/><rect class="cls-1" width="50" height="50"/></g></svg>