<?xml version="1.0" encoding="UTF-8"?><svg id="Layer_2" xmlns="http://www.w3.org/2000/svg" viewBox="0 0 50 50"><defs><style>.cls-1{fill:none;}.cls-1,.cls-2{stroke-width:0px;}.cls-2{fill:#363633;}</style></defs><g id="Layer_1-2"><path class="cls-2" d="M8.02,4.25c-2.08,0-3.77,1.69-3.77,3.77v33.95c0,2.08,1.69,3.77,3.77,3.77h33.95c2.08,0,3.77-1.69,3.77-3.77V8.02c0-2.08-1.69-3.77-3.77-3.77H8.02ZM33.79,14.15c1.17,0,1.97.75,1.97,1.77s-.8,1.77-1.97,1.77-1.97-.75-1.97-1.77.81-1.77,1.97-1.77ZM18.95,15.48h3.74l6.61,18.61h-3.57l-1.57-4.76h-6.85l-1.6,4.76h-3.36l6.6-18.61ZM20.64,19.02l-2.55,7.67h5.3l-2.53-7.67h-.22ZM32.21,19.98h3.18v14.11h-3.18v-14.11Z"/><rect class="cls-1" width="50" height="50"/></g></svg>