<?xml version="1.0" encoding="UTF-8"?><svg id="Layer_2" xmlns="http://www.w3.org/2000/svg" viewBox="0 0 50 50"><defs><style>.cls-1{fill:none;}.cls-1,.cls-2{stroke-width:0px;}.cls-2{fill:#363633;}</style></defs><g id="Layer_1-2"><path class="cls-2" d="M8.02,4.25c-2.08,0-3.77,1.69-3.77,3.77v33.95c0,2.08,1.69,3.77,3.77,3.77h33.95c2.08,0,3.77-1.69,3.77-3.77V8.02c0-2.08-1.69-3.77-3.77-3.77H8.02ZM32,15.1h3.2v19.56h-3.09v-2.23h-.22c-.8,1.55-2.42,2.46-4.38,2.46-3.57,0-5.8-2.81-5.8-7.3s2.24-7.27,5.8-7.27c1.93,0,3.54.93,4.28,2.48h.22v-7.7ZM14.81,16.06h3.33v18.61h-3.33v-18.61ZM28.49,23.05c-2.18,0-3.52,1.73-3.52,4.56s1.33,4.56,3.52,4.56,3.54-1.73,3.54-4.56-1.35-4.56-3.54-4.56Z"/><rect class="cls-1" width="50" height="50"/></g></svg>