<?xml version="1.0" encoding="UTF-8"?><svg id="Layer_2" xmlns="http://www.w3.org/2000/svg" viewBox="0 0 50 50"><defs><style>.cls-1{fill:#010101;}.cls-1,.cls-2{stroke-width:0px;}.cls-2{fill:none;}</style></defs><g id="Layer_1-2"><path class="cls-1" d="M43.34,4H6.67c-1.47,0-2.67,1.2-2.67,2.67v36.66c0,1.47,1.2,2.67,2.67,2.67h36.66c1.47,0,2.67-1.2,2.67-2.66V6.67c0-1.47-1.2-2.67-2.66-2.67ZM27,36.18c0,4-2.34,5.82-5.77,5.82-3.09,0-5.32-2.07-6.23-4l3.14-1.9c.61,1.07,1.53,1.9,2.86,1.9s2-.5,2-2.43v-12.57h4v13.18ZM35.68,42c-3.54,0-5.55-1.79-6.68-4l3-2c.82,1.34,1.71,2.61,3.59,2.61,1.58,0,2.41-.79,2.41-1.88,0-1.3-.86-1.77-2.6-2.53l-.95-.41c-2.75-1.17-4.59-2.64-4.59-5.75,0-2.86,2.18-5.04,5.59-5.04,2.43,0,4.17.84,5.43,3.05l-2.97,1.91c-.66-1.18-1.36-1.64-2.46-1.64s-1.82.71-1.82,1.64c0,1.14.71,1.61,2.34,2.32l.95.41c3.25,1.39,5.07,2.8,5.07,5.99,0,3.43-2.7,5.32-6.32,5.32Z"/><rect class="cls-2" width="50" height="50"/></g></svg>