<svg viewBox="0 0 40 41" xmlns="http://www.w3.org/2000/svg">
<path fill-rule="evenodd" clip-rule="evenodd" d="M0 2.88366C0 1.29156 1.32337 0.000125885 2.95592 0.000125885H37.0441C38.6766 0.000125885 40 1.29156 40 2.88366V37.3704C40 38.963 38.6766 40.2539 37.0441 40.2539H2.95592C1.32337 40.2539 0 38.963 0 37.3704V2.88366ZM12.1252 33.6968V15.5199H6.08359V33.6968H12.1252ZM9.10438 13.0382C11.2112 13.0382 12.5226 11.6424 12.5226 9.89811C12.4833 8.11452 11.2112 6.75748 9.14435 6.75748C7.07769 6.75748 5.72644 8.11452 5.72644 9.89811C5.72644 11.6424 7.03749 13.0382 9.065 13.0382H9.10438ZM21.5098 33.6968H15.4683C15.4683 33.6968 15.5477 17.2255 15.4684 15.5199H21.51V18.0934C22.3129 16.8549 23.7499 15.0934 26.9548 15.0934C30.9297 15.0934 33.9103 17.6913 33.9103 23.2744V33.6968H27.8692V23.9726C27.8692 21.529 26.9947 19.8622 24.8085 19.8622C23.1395 19.8622 22.1454 20.9863 21.7086 22.0718C21.5491 22.4601 21.5098 23.0028 21.5098 23.5461V33.6968ZM21.51 18.0934V18.1561H21.4697C21.4829 18.1353 21.4964 18.1145 21.51 18.0934Z"/>
</svg>
