<svg viewBox="0 0 40 40" fill="none" xmlns="http://www.w3.org/2000/svg">
<path fill-rule="evenodd" clip-rule="evenodd" d="M20 40C31.0457 40 40 31.0457 40 20C40 8.9543 31.0457 0 20 0C8.9543 0 0 8.9543 0 20C0 31.0457 8.9543 40 20 40ZM9.16349 12.1346C9.37492 12.0509 9.60436 12 9.84624 12H30.7692C31.0111 12 31.2407 12.0507 31.4519 12.1346L20.9904 21.2593C20.538 21.654 20.0572 21.6536 19.6058 21.2593L9.16349 12.1346ZM8 13.846C8 13.7587 8.00751 13.6705 8.01932 13.5865L8.01931 13.5863L18.394 22.6539C19.4786 23.6013 21.1173 23.5998 22.2018 22.6539L32.5963 13.5863C32.6081 13.6705 32.6156 13.7587 32.6156 13.846V26.1537C32.6156 27.1767 31.7921 28 30.7694 28H9.84626C8.8233 28 8 27.1764 8 26.1537V13.846Z"/>
</svg>
