<?xml version="1.0" encoding="UTF-8"?><svg id="Layer_2" xmlns="http://www.w3.org/2000/svg" viewBox="0 0 50 50"><defs><style>.cls-1{fill:none;}.cls-1,.cls-2{stroke-width:0px;}.cls-2{fill:#363633;}</style></defs><g id="Layer_1-2"><path class="cls-2" d="M4.91,7.47s0,.08,0,.12v33.99l7.94-17.35L4.91,7.47ZM5.75,44.11c.27.04,1.11.15,2.3.15,2.13,0,5.36-.35,8.28-2.11.29-.17.46-.5.44-.83l-.55-9.96-2.36-4.98-8.12,17.72ZM17.61,6.29c-.16-.36-.52-.58-.91-.54l-10.19.85,14.17,29.92c.17.18.41.29.66.29h8.22c.08,0,.16-.01.24-.03.02,0,.04-.02.06-.02,0,0,.01,0,.02,0l.32-.65-11.6-27.54-.99-2.26ZM44.39,6.7c-.06-.01-.11-.03-.17-.03-.01,0-.02,0-.04,0h-11.88c-.37,0-.7.22-.84.56l-5.72,13.59,5.52,13.11,13.3-27.17c-.05-.02-.12-.03-.17-.05ZM33.22,34.07v7.3c0,.31.15.59.41.76l2.22,1.48c1.61-6.31,5.32-21.05,7.24-29.69l-9.86,20.16ZM37.61,44.11h6.58c.51,0,.91-.41.91-.91V13.28c-1.86,8.57-5.82,24.28-7.49,30.83Z"/><rect class="cls-1" width="50" height="50"/></g></svg>