<?xml version="1.0" encoding="UTF-8"?><svg id="Layer_2" xmlns="http://www.w3.org/2000/svg" viewBox="0 0 50 50"><defs><style>.cls-1{fill:none;}.cls-1,.cls-2{stroke-width:0px;}.cls-2{fill:#363633;}</style></defs><g id="Layer_1-2"><path class="cls-2" d="M8.02,4.25c-2.08,0-3.77,1.69-3.77,3.77v33.95c0,2.08,1.69,3.77,3.77,3.77h33.95c2.08,0,3.77-1.69,3.77-3.77V8.02c0-2.08-1.69-3.77-3.77-3.77H8.02ZM11.8,15.55h7.5c3.71,0,6.26,2.54,6.26,6.29s-2.63,6.22-6.4,6.22h-4.03v6.1h-3.33V15.55ZM15.12,18.34v6.96h3.29c2.37,0,3.77-1.24,3.77-3.46s-1.36-3.51-3.75-3.51h-3.3ZM32.94,19.77c3.35,0,5.46,1.48,5.69,4.05h-3c-.23-.99-1.18-1.62-2.67-1.62s-2.55.7-2.55,1.72c0,.8.67,1.29,2.09,1.61l2.49.57c2.7.61,3.95,1.77,3.95,3.84,0,2.71-2.49,4.52-6.01,4.52s-5.74-1.52-5.98-4.09h3.16c.31,1.04,1.3,1.67,2.9,1.67s2.73-.71,2.73-1.75c0-.8-.6-1.3-1.95-1.6l-2.5-.58c-2.71-.62-3.98-1.87-3.98-4,0-2.55,2.32-4.32,5.64-4.32Z"/><rect class="cls-1" width="50" height="50"/></g></svg>