<?xml version="1.0" encoding="UTF-8"?><svg id="Layer_2" xmlns="http://www.w3.org/2000/svg" viewBox="0 0 50 50"><defs><style>.cls-1{fill:#010101;}.cls-1,.cls-2{stroke-width:0px;}.cls-2{fill:none;}</style></defs><g id="Layer_1-2"><path class="cls-1" d="M24.5,2c-8.7,0-10.5,4.49-10.5,7.09v4.91h10v1h-14.91c-3.3,0-7.09,2.6-7.09,10s3.79,10,7.09,10h5.91v-6c0-2.2,1.8-4,4-4h12c1.7,0,3-1.3,3-3v-12.91c0-3.5-3.3-7.09-9.5-7.09ZM20,7c1.1,0,2,.9,2,2s-.9,2-2,2-2-.9-2-2,.9-2,2-2ZM35,15v7c0,2.2-1.8,4-4,4h-12c-1.7,0-3,1.3-3,3v11.91c0,3.5,3.3,7.09,9.5,7.09,8.7,0,10.5-4.49,10.5-7.09v-4.91h-10v-1h14.91c3.3,0,7.09-2.6,7.09-10s-3.79-10-7.09-10h-5.91ZM30,39c1.1,0,2,.9,2,2s-.9,2-2,2-2-.9-2-2,.9-2,2-2Z"/><rect class="cls-2" width="50" height="50"/></g></svg>