<?xml version="1.0" encoding="UTF-8"?><svg id="Layer_2" xmlns="http://www.w3.org/2000/svg" viewBox="0 0 50 50"><defs><style>.cls-1{fill:#010101;}.cls-1,.cls-2{stroke-width:0px;}.cls-2{fill:none;}</style></defs><g id="Layer_1-2"><rect class="cls-2" width="50" height="50"/><path class="cls-1" d="M16.15,2.83c-1.25,0-2.41.28-3.44.87-3.21,1.86-4.44,6.38-3.79,12.01C3.71,17.97.41,21.29.41,25s3.3,7.03,8.5,9.29c-.65,5.63.58,10.15,3.79,12.01,1.03.59,2.19.87,3.44.87,2.67,0,5.75-1.34,8.85-3.64,3.1,2.3,6.19,3.64,8.86,3.64,1.25,0,2.41-.28,3.44-.87,3.21-1.86,4.44-6.38,3.79-12.01,5.2-2.25,8.5-5.57,8.5-9.29s-3.3-7.03-8.5-9.29c.65-5.63-.58-10.15-3.79-12.01-1.03-.59-2.19-.87-3.44-.87-2.67,0-5.75,1.34-8.85,3.64-3.1-2.3-6.18-3.64-8.85-3.64ZM16.15,6.42c1.6,0,3.72.85,6.02,2.43-1.35,1.28-2.68,2.73-3.95,4.34-2.07.3-4.01.73-5.82,1.27,0-.13-.03-.26-.04-.38-.22-3.65.58-6.37,2.14-7.27.46-.27,1-.39,1.65-.39ZM33.85,6.42c.65,0,1.19.13,1.65.39,1.56.9,2.36,3.62,2.14,7.27,0,.12-.03.26-.04.38-1.81-.54-3.76-.97-5.82-1.27-1.27-1.62-2.59-3.07-3.95-4.34,2.3-1.58,4.42-2.43,6.02-2.43ZM25,11.12c.56.51,1.11,1.04,1.66,1.62-.55-.02-1.1-.04-1.66-.04s-1.11.03-1.66.04c.56-.58,1.11-1.12,1.66-1.62ZM25,16.29c1.7,0,3.31.09,4.83.26.93,1.27,1.85,2.6,2.71,4.09.82,1.43,1.55,2.89,2.2,4.35-.64,1.47-1.37,2.93-2.2,4.36-.86,1.49-1.77,2.82-2.7,4.08-1.58.17-3.2.27-4.84.27s-3.31-.09-4.83-.26c-.93-1.27-1.85-2.6-2.71-4.09-.83-1.43-1.55-2.89-2.2-4.36.64-1.46,1.37-2.93,2.2-4.35.86-1.49,1.77-2.82,2.7-4.08,1.58-.17,3.2-.27,4.84-.27ZM34.73,17.4c.81.2,1.59.41,2.33.64-.17.75-.37,1.52-.6,2.29-.26-.49-.52-.99-.8-1.48-.29-.51-.62-.96-.92-1.45ZM15.27,17.4c-.3.49-.63.94-.92,1.45-.28.49-.54.99-.8,1.48-.23-.78-.44-1.54-.6-2.3.75-.24,1.53-.45,2.33-.64ZM9.57,19.36c.43,1.82,1.03,3.71,1.8,5.64-.77,1.92-1.37,3.81-1.8,5.63-3.57-1.72-5.58-3.87-5.58-5.62s1.95-3.85,5.22-5.49c.11-.06.24-.1.35-.16ZM40.43,19.38c3.57,1.72,5.58,3.87,5.58,5.62s-1.95,3.85-5.22,5.49c-.11.06-.24.1-.35.16-.43-1.82-1.03-3.72-1.8-5.64.77-1.92,1.36-3.81,1.79-5.62ZM25,20.9c-2.26,0-4.1,1.83-4.1,4.1s1.83,4.1,4.1,4.1,4.1-1.83,4.1-4.1-1.83-4.1-4.1-4.1ZM13.55,29.66c.26.49.52.99.81,1.48.29.51.62.96.92,1.45-.81-.2-1.59-.41-2.33-.64.17-.75.37-1.52.6-2.29ZM36.45,29.67c.23.78.44,1.54.6,2.29-.75.24-1.53.45-2.33.64.3-.49.63-.94.92-1.45.28-.49.54-.99.8-1.48ZM12.4,35.54c1.81.54,3.76.97,5.82,1.27,1.27,1.62,2.59,3.07,3.95,4.35-2.3,1.58-4.42,2.43-6.02,2.43-.65,0-1.19-.13-1.65-.4-1.56-.9-2.36-3.62-2.14-7.26,0-.13.03-.26.04-.38ZM37.6,35.54c0,.13.03.26.04.38.22,3.65-.58,6.36-2.14,7.26-.46.27-1,.4-1.65.4-1.6,0-3.72-.85-6.02-2.43,1.35-1.28,2.68-2.73,3.95-4.35,2.07-.3,4.01-.73,5.82-1.27ZM23.34,37.25c.55.02,1.1.04,1.66.04s1.11-.03,1.66-.04c-.56.58-1.11,1.12-1.66,1.62-.56-.51-1.11-1.04-1.66-1.62Z"/></g></svg>