<svg width="50" height="50" viewBox="0 0 50 50" fill="none" xmlns="http://www.w3.org/2000/svg">
<path fill-rule="evenodd" clip-rule="evenodd" d="M25 50C38.8071 50 50 38.8071 50 25C50 11.1929 38.8071 0 25 0C11.1929 0 0 11.1929 0 25C0 38.8071 11.1929 50 25 50ZM13 10C11.8954 10 11 10.8955 11 12V39C11 40.1045 11.8954 41 13 41H36.2424C37.347 41 38.2424 40.1045 38.2424 39V12C38.2424 10.8955 37.347 10 36.2424 10H13ZM14 28.25C14 27.8358 14.3358 27.5 14.75 27.5H35.25C35.6642 27.5 36 27.8358 36 28.25C36 28.6642 35.6642 29 35.25 29H14.75C14.3358 29 14 28.6642 14 28.25ZM14.75 31.5C14.3358 31.5 14 31.8358 14 32.25C14 32.6642 14.3358 33 14.75 33H35.25C35.6642 33 36 32.6642 36 32.25C36 31.8358 35.6642 31.5 35.25 31.5H14.75ZM14 36.25C14 35.8358 14.3358 35.5 14.75 35.5H35.25C35.6642 35.5 36 35.8358 36 36.25C36 36.6642 35.6642 37 35.25 37H14.75C14.3358 37 14 36.6642 14 36.25ZM13.93 15.71V23H15.26V17.23H15.33L15.45 17.71L17.17 23H18.47L20.18 17.71L20.3 17.23H20.37V23H21.71V15.71H19.58L17.83 21.2H17.77L16.01 15.71H13.93ZM23.5687 15.71V23H24.9587V20.59H26.7987C28.5987 20.59 29.4687 19.62 29.4687 18.15C29.4687 16.64 28.5987 15.71 26.8687 15.71H23.5687ZM24.9587 16.9H26.6787C27.4987 16.9 28.0087 17.29 28.0087 18V18.38C28.0087 19.08 27.5187 19.48 26.6787 19.48H24.9587V16.9ZM30.8343 15.71V23H32.2243V20.07H35.6243V18.94H32.2243V16.9H36.0243V15.71H30.8343Z"/>
</svg>
