<?xml version="1.0" encoding="UTF-8"?><svg id="Layer_2" xmlns="http://www.w3.org/2000/svg" viewBox="0 0 50 50"><defs><style>.cls-1{fill:#010101;}.cls-1,.cls-2{stroke-width:0px;}.cls-2{fill:none;}</style></defs><g id="Layer_1-2"><path class="cls-1" d="M29.47,4c-2.1,0-4.07.85-5.53,2.34-.41.01-.79.05-1.15.1-5.28.76-9.39,5.03-10.22,10.61-.41,2.66-.06,5.31.99,7.71-1.21,1.4-1.88,3.19-1.88,5.08,0,2.49.03,4.5.09,6.02.05,1.55.11,2.59.16,3.13.4,4,3.77,7.01,7.85,7.01l.55-.03c2.05-.18,3.91-1.16,5.21-2.73.1-.11.19-.22.28-.34,1.36.03,2.74-.14,4.04-.54,5.88-1.76,9.36-7.25,8.29-13.05-.3-1.64-.92-3.19-1.87-4.61.61-1.13.94-2.4.94-3.69v-9.24c0-4.29-3.47-7.77-7.73-7.77ZM29.47,7.5c2.34,0,4.24,1.92,4.23,4.27v9.25c0,.96-.33,1.9-.94,2.66-.51.64-.5,1.56.02,2.2,1.02,1.24,1.64,2.57,1.91,4.06.74,4.02-1.71,7.84-5.84,9.07h0c-1.21.36-2.5.47-3.75.33-.71-.08-1.41.29-1.75.93-.13.24-.27.46-.48.69-.74.89-1.75,1.43-2.85,1.52h-.25c-2.31.01-4.14-1.61-4.36-3.85-.05-.5-.1-1.46-.15-2.9-.05-1.48-.08-3.45-.08-5.89,0-1.31.58-2.53,1.61-3.36.66-.54.85-1.47.43-2.21-1.13-2.04-1.54-4.35-1.19-6.7.61-4.04,3.52-7.13,7.28-7.67.31-.05.66-.07,1.06-.07.1,0,.21,0,.32,0,.61.03,1.09-.24,1.43-.68.83-1.06,2.05-1.66,3.36-1.66ZM29.56,9.69c-.97,0-1.75.78-1.75,1.75v1.87c-1.54-1.28-3.16-1.34-4.19-1.2-2.74.39-4.8,2.59-5.25,5.6-.55,3.63,1.32,7.02,4.75,8.65,3.91,1.85,5.54,3.15,5.81,4.64.23,1.24-.79,2.01-1.74,2.29-2.02.61-4.75-.45-6.31-4.15-.32-.77-1.14-1.19-1.96-1.04-.82.16-1.4.88-1.4,1.72,0,6.13.22,8.59.23,8.69.08.91.85,1.59,1.74,1.59.05,0,.11,0,.17-.01.96-.09,1.67-.93,1.58-1.9,0-.01-.08-.94-.14-3.03,2.29,1.77,4.96,2.13,7.1,1.49,2.97-.88,4.69-3.46,4.18-6.27-.58-3.19-3.4-5.11-7.76-7.17-2.44-1.15-3.03-3.39-2.79-4.96.17-1.15.87-2.46,2.29-2.66,2.72-.44,3.7,5.46,3.71,5.52.13.91.93,1.56,1.86,1.49.91-.07,1.62-.83,1.62-1.74v-9.41c0-.97-.78-1.75-1.75-1.75Z"/><rect class="cls-2" width="50" height="50"/></g></svg>