<?xml version="1.0" encoding="UTF-8"?><svg id="Layer_2" xmlns="http://www.w3.org/2000/svg" viewBox="0 0 50 50"><defs><style>.cls-1{fill:#010101;}.cls-1,.cls-2{stroke-width:0px;}.cls-2{fill:none;}</style></defs><g id="Layer_1-2"><path class="cls-1" d="M48.74,14.75c-1.02-.43-2.19,0-2.69.98-.47.93-1.09,1.51-1.9,1.75-1.27.38-2.8-.11-3.51-.53-.94-.55-2.03-1.39-3.18-2.27-3.68-2.83-8.25-6.35-14.54-6.35-5.03,0-7.61,2.58-11.89,6.86-.81.81-.82,2.14,0,2.95.79.8,2.06.82,2.88.06.02-.02.04-.04.06-.06,1.15-.89,8.4-.03,11.56,2.49,4.71,3.74,8.1,6.44,11.97,6.44,5.54,0,10.16-3.63,12.38-9.7.38-1.04-.12-2.19-1.14-2.63ZM38.33,29.34c-1.02-.43-2.19,0-2.69.98-.47.93-1.09,1.51-1.9,1.75-1.27.38-2.8-.11-3.51-.53-.94-.55-2.03-1.39-3.18-2.27-3.68-2.83-8.25-6.35-14.54-6.35-5.03,0-7.61,2.58-11.89,6.86-.81.81-.82,2.14,0,2.95.79.8,2.06.82,2.88.06.02-.02.04-.04.06-.06,1.15-.89,8.4-.03,11.56,2.49,4.7,3.74,8.1,6.44,11.97,6.44,5.54,0,10.16-3.63,12.38-9.7.38-1.04-.12-2.19-1.14-2.63Z"/><rect class="cls-2" x="0" width="50" height="50"/></g></svg>