<?xml version="1.0" encoding="UTF-8"?><svg id="Layer_2" xmlns="http://www.w3.org/2000/svg" viewBox="0 0 50 50"><defs><style>.cls-1{fill:#010101;}.cls-1,.cls-2{stroke-width:0px;}.cls-2{fill:none;}</style></defs><g id="Layer_1-2"><path class="cls-1" d="M4.26,4.63c-.09-.35.24-.66.58-.56l10.09,2.9c.09,0,.18.03.26.07l19.9,5.73c.08,0,.16.03.23.07l10.09,2.9c.35.1.46.54.2.79l-30.44,29.28c-.26.25-.69.12-.78-.23l-5.05-20.44s-.01-.04-.02-.06L4.26,4.63ZM12.91,35.71l2.19,8.87,6.6-6.35-8.79-2.52ZM19.7,28.69l-6.39,6.16,8.51,2.44-2.12-8.6ZM20.65,28.63l2.12,8.58,6.37-6.13-8.49-2.45ZM10.43,25.68l2.13,8.6,6.38-6.15-8.51-2.45ZM27.24,21.42l-6.49,6.26,8.65,2.49-2.16-8.75ZM28.15,21.2l2.16,8.75,6.51-6.26-8.67-2.49ZM17.19,18.52l-6.51,6.26,8.67,2.5-2.16-8.76ZM18.1,18.28l2.12,8.6,6.39-6.16-8.51-2.44ZM7.88,15.36l2.16,8.75,6.5-6.26-8.66-2.49ZM34.82,14.14l-6.39,6.16,8.51,2.44-2.12-8.6ZM35.73,13.93l2.15,8.73,6.49-6.24-8.64-2.49ZM24.73,11.26l-6.36,6.12,8.47,2.43-2.11-8.56ZM25.64,11.03l2.13,8.61,6.39-6.16-8.52-2.45ZM14.68,8.34l-6.39,6.16,8.51,2.44-2.12-8.6ZM15.59,8.14l2.12,8.58,6.37-6.14-8.49-2.44ZM5.37,5.19l2.16,8.74,6.49-6.25-8.65-2.49Z"/><rect class="cls-2" width="50" height="50"/></g></svg>