<?xml version="1.0" encoding="UTF-8"?><svg id="Layer_2" xmlns="http://www.w3.org/2000/svg" viewBox="0 0 50 50"><defs><style>.cls-1{fill:#010101;}.cls-1,.cls-2{stroke-width:0px;}.cls-2{fill:none;}</style></defs><g id="Layer_1-2"><path class="cls-1" d="M25,2C12.3,2,2,12.3,2,25s10.3,23,23,23,23-10.3,23-23S37.7,2,25,2ZM33.41,29.36c-1.04,2.47-2.97,4.73-6.54,4.73,0,0-1.51-10.54-1.54-10.78-.09.25-2.23,5.8-2.23,5.8-1,2.56-2.92,4.98-6.49,4.99l-2.79-17.04c2.32,0,5.19,1.91,5.39,5.05,0,0,.36,6.25.37,6.74.2-.53,2.62-6.81,2.62-6.81.96-2.58,2.77-4.99,6.18-4.99,0,0,1.45,11.25,1.51,11.78.15-.53,2.15-6.79,2.15-6.79.96-2.58,2.82-4.99,6.35-4.99l-4.99,12.32Z"/><rect class="cls-2" width="50" height="50"/></g></svg>